P2
64 64
255
146 83 83 20 20 20 20 20 20 20 20 20 151 151 151 151 151
151 89 89 27 27 27 27 27 222 222 222 222 222 222 223 224 225
226 227 228 229 230 231 231 231 231 231 231 42 42 42 42 42 108
108 174 174 174 174 174 174 49 49 49 49 49 49
146 146 83 83 20 20 20 20 20 20 20 20 20 151 151 151 151
151 89 89 89 27 27 27 27 222 222 222 222 222 222 223 224 225
226 227 228 229 230 231 231 231 231 231 42 42 42 42 42 108 108
108 174 174 174 174 174 49 49 49 49 49 49 49
146 146 146 83 83 20 20 20 20 20 20 20 20 151 151 151 151
151 151 89 89 27 27 27 27 27 222 222 222 222 222 223 224 225
226 227 228 229 230 231 231 231 231 231 42 42 42 42 42 108 108
174 174 174 174 174 174 49 49 49 49 49 49 49
146 146 146 146 83 83 20 20 20 20 20 20 20 20 151 151 151
151 151 89 89 89 27 27 27 27 222 222 222 222 222 223 224 225
226 227 228 229 230 231 231 231 231 231 42 42 42 42 108 108 108
174 174 174 174 174 49 49 49 49 49 49 49 114
146 146 146 146 146 83 83 20 20 20 20 20 20 20 20 151 151
151 151 151 89 89 27 27 27 27 222 222 222 222 222 223 224 225
226 227 228 229 230 231 231 231 231 42 42 42 42 42 108 108 174
174 174 174 174 49 49 49 49 49 49 49 114 114
146 146 146 146 146 146 83 83 20 20 20 20 20 20 20 151 151
151 151 151 89 89 89 27 27 27 27 222 222 222 222 223 224 225
226 227 228 229 230 231 231 231 231 42 42 42 42 108 108 108 174
174 174 174 174 49 49 49 49 49 49 114 114 179
146 146 146 146 146 146 146 83 83 20 20 20 20 20 20 20 151
151 151 151 151 89 89 27 27 27 27 222 222 222 222 223 224 225
226 227 228 229 230 231 231 231 231 42 42 42 42 108 108 174 174
174 174 174 49 49 49 49 49 49 114 114 179 179
146 146 146 146 146 146 146 146 83 83 20 20 20 20 20 20 20
151 151 151 151 89 89 89 27 27 27 222 222 222 222 223 224 225
226 227 228 229 230 231 231 231 42 42 42 42 108 108 108 174 174
174 174 49 49 49 49 49 49 114 114 179 179 179
146 146 146 146 146 146 146 146 146 83 83 20 20 20 20 20 20
151 151 151 151 151 89 89 27 27 27 27 222 222 222 223 224 225
226 227 228 229 230 231 231 231 42 42 42 42 108 108 174 174 174
174 174 49 49 49 49 49 114 114 179 179 179 179
80 80 146 146 146 146 146 146 146 146 83 83 20 20 20 20 20
20 151 151 151 151 89 89 89 27 27 27 222 222 222 223 224 225
226 227 228 229 230 231 231 231 42 42 42 108 108 108 174 174 174
174 49 49 49 49 49 114 114 179 179 179 179 179
80 80 80 146 146 146 146 146 146 146 146 83 83 20 20 20 20
20 20 151 151 151 151 89 89 27 27 27 28 222 222 223 224 225
226 227 228 229 230 231 231 41 42 42 42 108 108 174 174 174 174
49 49 49 49 49 114 114 179 179 179 179 179 179
80 80 80 80 80 146 146 146 146 146 146 146 83 83 20 20 20
20 20 151 151 151 151 89 89 89 27 27 28 222 255 255 255 255
255 255 255 255 255 255 40 41 42 42 108 108 108 174 174 174 239
49 49 49 49 114 114 179 179 179 179 179 179 179
80 80 80 80 80 80 146 146 146 146 146 146 146 83 83 20 20
20 20 20 151 151 151 151 89 89 27 255 255 255 222 223 224 225
226 227 228 229 230 40 255 255 255 107 108 108 174 174 174 239 49
49 49 49 114 114 179 179 179 179 179 179 179 179
80 80 80 80 80 80 80 80 146 146 146 146 146 146 83 83 20
20 20 20 214 151 151 151 89 255 255 27 28 29 29 223 224 225
226 227 228 229 230 40 40 41 107 255 255 173 174 174 239 239 49
49 49 114 114 179 179 179 179 179 179 179 117 117
80 80 80 80 80 80 80 80 80 146 146 146 146 146 146 83 83
20 20 20 20 214 151 255 255 89 90 90 28 29 29 29 224 225
226 227 228 229 40 40 40 41 107 107 173 255 255 239 239 49 49
49 114 114 179 179 179 179 179 179 179 117 117 117
207 207 80 80 80 80 80 80 80 80 80 146 146 146 146 146 83
83 20 20 20 214 255 151 152 152 90 90 90 29 29 29 224 225
226 227 228 229 40 40 40 107 107 107 173 173 239 255 48 49 49
114 114 179 179 179 179 179 179 117 117 117 117 117
207 207 207 207 80 80 80 80 80 80 80 80 146 146 146 146 146
83 83 20 255 255 214 214 152 152 152 90 90 29 29 29 224 225
226 227 228 40 40 40 40 107 107 173 173 173 239 48 255 255 114
114 179 179 179 179 179 179 117 117 117 117 117 117
78 207 207 207 207 207 80 80 80 80 80 80 80 17 146 146 146
146 83 255 255 21 21 214 214 152 152 90 90 29 29 29 29 225
226 227 228 40 40 40 107 107 107 173 173 239 48 48 113 255 255
179 179 179 179 179 117 117 117 117 117 117 117 117
78 78 78 207 207 207 207 207 80 80 80 80 80 80 17 17 146
146 255 255 84 84 21 21 214 152 152 152 90 90 29 29 29 225
226 227 228 40 40 40 107 107 173 173 173 48 48 113 113 178 255
255 179 179 52 117 117 117 117 117 117 117 246 246
78 78 78 78 78 207 207 207 207 207 80 80 80 80 80 17 17
210 255 147 147 84 84 21 21 214 152 152 90 90 29 29 29 225
226 227 228 40 40 40 107 107 173 173 48 48 113 113 178 178 243
255 52 52 117 117 117 117 117 117 246 246 246 246
78 78 78 78 78 78 78 207 207 207 207 207 80 80 80 80 17
255 210 210 147 147 84 84 21 21 152 152 152 90 29 29 29 29
226 227 40 40 40 107 107 173 173 173 48 113 113 178 178 243 243
52 255 117 117 117 117 117 246 246 246 246 246 119
78 78 78 78 78 78 78 78 78 207 207 207 207 207 80 80 255
17 17 210 210 147 147 84 84 21 21 152 152 90 90 29 29 29
226 227 40 40 40 107 107 173 173 48 113 113 178 178 243 243 52
52 117 255 117 117 246 246 246 246 246 119 119 119
78 78 78 78 78 78 78 78 78 78 78 207 207 207 207 144 255
144 144 17 210 210 147 147 84 84 21 21 152 152 90 29 29 29
226 227 40 40 40 107 173 173 48 113 113 178 178 243 243 52 52
181 181 255 246 246 246 246 246 119 119 119 119 119
13 13 13 78 78 78 78 78 78 78 78 78 78 207 207 255 144
144 144 144 144 210 210 147 147 84 84 21 152 152 90 29 29 29
226 227 40 40 107 107 173 173 113 113 178 178 243 243 52 181 181
181 181 246 255 246 246 119 119 119 119 119 119 119
13 13 13 13 13 13 78 78 78 78 78 78 78 78 15 255 15
15 144 144 144 144 144 210 147 147 84 84 21 152 152 90 29 29
226 40 40 40 107 173 173 113 113 178 178 243 243 181 181 181 181
181 54 54 255 119 119 119 119 119 119 119 119 56
13 13 13 13 13 13 13 13 13 78 78 78 78 78 255 15 15
15 15 15 144 144 144 144 210 147 147 84 84 21 152 90 29 29
29 40 40 40 107 173 113 113 178 178 243 243 181 181 181 181 54
54 54 54 119 255 119 119 119 119 56 56 56 56
13 13 13 13 13 13 13 13 13 13 13 13 142 142 255 142 142
15 15 15 15 15 144 144 144 144 147 147 84 84 152 152 29 29
29 40 40 107 173 173 113 178 178 243 181 181 181 181 54 54 54
54 54 183 183 255 183 183 56 56 56 56 56 56
13 13 13 13 13 13 13 13 13 13 13 13 13 206 255 206 206
206 206 15 15 15 15 15 144 144 144 147 147 84 84 152 90 29
29 40 40 107 173 113 178 178 243 181 181 181 54 54 54 54 247
247 247 247 247 255 56 56 56 56 56 56 56 56
13 13 13 13 13 13 13 13 13 13 13 13 13 255 206 206 206
206 206 206 206 206 15 15 15 15 144 144 144 147 84 84 152 29
29 40 40 173 113 178 178 181 181 181 54 54 54 247 247 247 247
247 247 247 247 56 255 56 56 56 56 56 56 56
77 77 77 77 77 77 77 77 77 77 77 77 77 255 77 77 206
206 206 206 206 206 206 206 206 15 15 15 144 144 147 84 84 29
29 40 107 113 178 178 181 181 54 54 247 247 247 247 247 247 247
247 247 247 120 120 255 120 120 120 120 120 120 120
141 141 141 141 141 141 141 141 141 141 141 141 141 255 141 141 141
141 206 206 206 206 206 206 206 206 206 206 15 15 144 147 84 152
29 40 173 178 178 181 54 247 247 247 247 247 247 247 247 247 247
184 184 184 184 184 255 184 184 184 184 184 184 184
205 205 205 205 205 205 205 205 205 205 205 205 205 255 205 205 205
205 205 205 205 205 206 206 206 206 206 206 206 206 206 15 144 84
29 40 178 181 247 247 247 247 247 247 247 247 247 247 248 248 248
248 248 248 248 248 255 248 248 248 248 248 248 248
13 13 13 13 13 13 13 13 13 13 13 13 13 255 13 13 13
13 13 13 13 13 13 13 13 13 206 206 206 206 206 206 206 206
84 178 247 247 247 247 247 247 247 56 56 56 56 56 56 56 56
56 56 56 56 56 255 56 56 56 56 56 56 56
77 77 77 77 77 77 77 77 77 77 77 77 77 255 77 77 77
77 77 77 77 77 77 77 77 77 142 142 142 142 142 142 142 142
20 242 183 183 183 183 183 183 183 120 120 120 120 120 120 120 120
120 120 120 120 120 255 120 120 120 120 120 120 120
141 141 141 141 141 141 141 141 141 141 141 141 141 255 141 141 141
141 141 141 141 141 142 142 142 142 142 142 142 142 142 79 208 20
93 104 242 245 183 183 183 183 183 183 183 183 183 183 184 184 184
184 184 184 184 184 255 184 184 184 184 184 184 184
205 205 205 205 205 205 205 205 205 205 205 205 205 255 205 205 205
205 142 142 142 142 142 142 142 142 142 142 79 79 208 211 20 216
93 104 237 242 242 245 118 183 183 183 183 183 183 183 183 183 183
248 248 248 248 248 255 248 248 248 248 248 248 248
13 13 13 13 13 13 13 13 13 13 13 13 13 255 13 13 142
142 142 142 142 142 142 142 142 79 79 79 208 208 211 20 20 93
93 104 43 49 242 242 245 245 118 118 183 183 183 183 183 183 183
183 183 183 56 56 255 56 56 56 56 56 56 56
77 77 77 77 77 77 77 77 77 77 77 77 77 255 142 142 142
142 142 142 142 142 79 79 79 79 208 208 208 211 20 20 216 93
93 104 104 237 49 242 242 245 245 245 118 118 118 183 183 183 183
183 183 183 183 120 255 120 120 120 120 120 120 120
77 77 77 77 77 77 77 77 77 77 77 77 77 142 255 142 142
142 142 79 79 79 79 79 208 208 208 211 211 20 20 216 26 93
93 104 104 43 237 49 242 242 179 245 245 245 118 118 118 118 183
183 183 183 183 255 120 120 120 120 120 120 120 120
77 77 77 77 77 77 77 77 77 77 77 77 206 206 255 206 206
79 79 79 79 79 208 208 208 208 211 211 20 20 216 216 93 93
93 104 104 43 237 237 49 242 242 179 245 245 245 245 118 118 118
118 118 247 247 255 247 247 120 120 120 120 120 120
77 77 77 77 77 77 77 77 77 14 14 14 14 14 255 79 79
79 79 79 208 208 208 208 146 211 211 20 20 85 216 26 93 93
93 104 104 104 43 237 49 49 242 242 179 179 245 245 245 245 118
118 118 118 55 255 55 55 55 55 120 120 120 120
77 77 77 77 77 77 14 14 14 14 14 14 14 14 79 255 79
79 208 208 208 208 208 146 211 211 20 20 85 216 216 26 93 93
162 104 104 104 43 237 237 49 49 242 242 179 179 245 245 245 245
245 118 118 255 55 55 55 55 55 55 55 55 120
77 77 77 14 14 14 14 14 14 14 14 14 14 143 143 255 208
208 208 208 208 146 146 211 211 20 20 85 216 216 26 93 93 93
162 163 104 104 43 43 237 237 49 49 242 242 179 179 116 245 245
245 245 182 255 182 182 55 55 55 55 55 55 55
14 14 14 14 14 14 14 14 14 14 14 143 143 143 143 208 255
208 208 81 146 146 211 211 20 20 85 85 216 216 26 93 93 93
162 163 104 104 104 43 237 237 112 49 49 242 242 179 179 116 116
245 245 255 182 182 182 182 182 55 55 55 55 55
14 14 14 14 14 14 14 14 14 143 143 143 143 143 16 16 255
81 81 146 146 211 211 20 20 85 85 216 216 26 26 93 93 93
162 163 104 104 104 43 43 237 237 112 49 49 242 242 179 179 116
116 53 255 53 53 182 182 182 182 182 55 55 55
14 14 14 14 14 14 14 143 143 143 143 143 16 16 16 16 81
255 146 146 211 211 20 20 85 85 216 216 216 26 93 93 93 93
162 163 104 104 104 43 43 237 237 237 112 49 49 242 242 179 179
116 255 53 53 53 53 53 182 182 182 182 182 55
14 14 14 14 14 143 143 143 143 143 16 16 16 16 16 81 81
146 255 211 211 20 20 85 85 150 216 216 26 26 93 93 93 161
162 163 164 104 104 104 43 43 237 237 112 112 49 49 242 242 179
255 116 116 53 53 53 53 53 53 182 182 182 182
14 14 14 143 143 143 143 143 16 16 16 16 16 16 81 81 210
210 255 255 20 20 85 85 150 216 216 216 26 26 93 93 93 161
162 163 164 104 104 104 43 43 237 237 237 112 112 49 49 242 255
255 243 243 116 53 53 53 53 53 53 53 182 182
14 143 143 143 143 143 16 16 16 16 16 16 16 81 210 210 210
210 19 255 255 85 85 150 150 216 216 26 26 93 93 93 93 161
162 163 164 104 104 104 43 43 43 237 237 175 112 112 49 255 255
243 243 243 243 243 53 53 53 53 53 53 53 53
143 143 143 143 16 16 16 16 16 16 16 16 210 210 210 210 210
19 19 84 255 255 150 150 216 216 216 26 26 93 93 93 160 161
162 163 164 104 104 104 104 43 43 237 237 237 175 112 255 255 50
50 243 243 243 243 243 243 53 53 53 53 53 53
143 143 16 16 16 16 16 16 16 16 16 210 210 210 210 210 19
19 84 84 84 150 255 215 216 216 26 26 26 93 93 93 160 161
162 163 164 165 104 104 104 43 43 43 237 237 175 255 112 113 113
50 50 243 243 243 243 243 243 53 53 53 53 53
16 16 16 16 16 16 16 16 16 210 210 210 210 210 210 19 19
84 84 84 84 150 215 255 255 25 26 26 92 93 93 93 160 161
162 163 164 165 104 104 104 105 43 43 237 255 255 175 175 113 113
113 50 50 243 243 243 243 243 243 243 53 53 53
16 16 16 16 16 16 16 16 210 210 210 210 210 210 19 19 84
84 84 84 150 215 215 215 25 255 255 91 92 93 93 159 160 161
162 163 164 165 166 104 104 105 43 255 255 237 238 238 175 175 113
113 113 50 50 243 243 243 243 243 243 243 53 53
16 16 16 16 16 16 210 210 210 210 210 210 210 19 19 84 84
84 84 84 215 215 215 215 25 25 91 255 255 255 158 159 160 161
162 163 164 165 166 104 255 255 255 43 44 44 238 238 238 175 113
113 113 113 50 50 243 243 243 243 243 243 243 243
16 16 16 16 16 210 210 210 210 210 210 210 19 19 84 84 84
84 84 215 215 215 215 25 25 25 91 91 92 158 255 255 255 255
255 255 255 255 255 255 104 105 106 106 44 44 44 238 238 238 175
113 113 113 113 50 50 243 243 243 243 243 243 243
16 16 16 210 210 210 210 210 210 210 210 19 19 84 84 84 84
84 84 215 215 215 215 25 25 91 91 91 92 158 158 159 160 161
162 163 164 165 166 167 167 105 106 106 106 44 44 238 238 238 238
113 113 113 113 113 50 50 243 243 243 243 243 243
16 16 210 210 210 210 210 210 210 210 19 19 84 84 84 84 84
84 215 215 215 215 25 25 25 91 91 91 158 158 158 159 160 161
162 163 164 165 166 167 167 167 106 106 106 44 44 44 238 238 238
238 113 113 113 113 113 50 50 243 243 243 243 243
210 210 210 210 210 210 210 210 210 19 19 84 84 84 84 84 84
215 215 215 215 215 25 25 91 91 91 91 158 158 158 159 160 161
162 163 164 165 166 167 167 167 106 106 106 106 44 44 238 238 238
238 238 113 113 113 113 113 50 50 243 243 243 243
210 210 210 210 210 210 210 210 19 19 84 84 84 84 84 84 84
215 215 215 215 25 25 25 91 91 91 158 158 158 158 159 160 161
162 163 164 165 166 167 167 167 106 106 106 106 44 44 44 238 238
238 238 113 113 113 113 113 113 50 50 243 243 243
210 210 210 210 210 210 210 19 19 84 84 84 84 84 84 84 215
215 215 215 215 25 25 91 91 91 91 158 158 158 158 159 160 161
162 163 164 165 166 167 167 167 167 106 106 106 106 44 44 238 238
238 238 238 113 113 113 113 113 113 50 50 243 243
210 210 210 210 210 210 19 19 84 84 84 84 84 84 84 215 215
215 215 215 25 25 25 91 91 91 91 158 158 158 158 159 160 161
162 163 164 165 166 167 167 167 167 106 106 106 106 44 44 44 238
238 238 238 238 113 113 113 113 113 113 50 50 243
210 210 210 210 210 19 19 84 84 84 84 84 84 84 84 215 215
215 215 215 25 25 91 91 91 91 158 158 158 158 158 159 160 161
162 163 164 165 166 167 167 167 167 106 106 106 106 106 44 44 238
238 238 238 238 113 113 113 113 113 113 113 50 50
210 210 210 210 19 19 84 84 84 84 84 84 84 84 215 215 215
215 215 25 25 25 91 91 91 91 158 158 158 158 158 159 160 161
162 163 164 165 166 167 167 167 167 167 106 106 106 106 44 44 44
238 238 238 238 238 113 113 113 113 113 113 113 50
210 210 210 19 19 84 84 84 84 84 84 84 84 215 215 215 215
215 215 25 25 91 91 91 91 91 158 158 158 158 158 159 160 161
162 163 164 165 166 167 167 167 167 167 106 106 106 106 106 44 44
238 238 238 238 238 238 113 113 113 113 113 113 113
