P2
114 114
255
255 255 255 255 255 255 255 255 255 255 255 255 255 255 255 255 255
255 255 255 255 255 255 255 255 255 255 255 255 255 255 255 255 255
255 255 255 255 255 255 255 255 255 255 255 255 255 255 255 255 255
255 255 255 255 255 255 255 255 255 255 255 255 255 255 255 255 255
255 255 255 255 255 255 255 255 255 255 255 255 255 255 255 255 255
255 255 255 255 255 255 255 255 255 255 255 255 255 255 255 255 255
255 255 255 255 255 255 255 255 255 255 255 255
255 255 255 255 255 255 255 255 255 255 255 255 255 255 255 255 255
255 255 255 255 255 255 255 255 255 255 255 255 255 255 255 255 255
255 255 255 255 255 255 255 255 255 255 255 255 255 255 255 255 255
255 255 255 255 255 255 255 255 255 255 255 255 255 255 255 255 255
255 255 255 255 255 255 255 255 255 255 255 255 255 255 255 255 255
255 255 255 255 255 255 255 255 255 255 255 255 255 255 255 255 255
255 255 255 255 255 255 255 255 255 255 255 255
255 255 255 255 255 255 255 255 255 255 255 255 255 255 255 255 255
255 255 255 255 255 255 255 255 255 255 255 255 255 255 255 255 255
255 255 255 255 255 255 255 255 255 255 255 255 255 255 255 255 255
255 255 255 255 255 255 255 255 255 255 78 78 78 78 78 78 110
110 110 110 142 142 142 174 174 206 255 255 255 255 255 255 255 255
255 255 255 255 255 255 255 255 255 255 255 255 255 255 255 255 255
255 255 255 255 255 255 255 255 255 255 255 255
255 255 255 255 255 255 255 255 255 255 255 255 255 255 255 255 255
255 255 255 255 255 255 255 255 255 255 255 255 255 255 255 255 255
255 255 255 255 255 255 255 255 255 255 255 255 255 255 255 255 255
255 255 255 255 255 255 255 255 255 255 46 46 46 46 46 46 78
78 78 78 110 110 142 142 142 174 255 255 255 255 255 255 255 255
255 255 255 255 255 255 255 255 255 255 255 255 255 255 255 255 255
255 255 255 255 255 255 255 255 255 255 255 255
255 255 255 255 255 255 255 255 255 255 255 255 255 255 255 255 255
255 255 255 255 255 255 255 255 255 255 255 255 255 255 255 255 255
255 255 255 255 255 255 255 255 255 255 255 255 255 255 255 255 255
255 255 255 255 255 255 255 255 255 255 14 14 14 14 14 14 46
46 46 46 78 78 110 110 142 142 255 255 255 255 255 255 255 255
255 255 255 255 255 255 255 255 255 255 255 255 255 255 255 255 255
255 255 255 255 255 255 255 255 255 255 255 255
255 255 255 255 255 255 255 255 255 255 255 255 255 255 255 255 255
255 255 255 255 255 255 255 255 255 255 255 255 255 255 255 255 255
255 255 255 255 255 255 255 255 255 255 255 255 255 255 255 255 255
255 255 255 255 255 255 255 255 255 255 232 232 232 232 232 232 14
14 14 46 46 46 78 78 110 110 255 255 255 255 255 255 255 255
255 255 255 255 255 255 255 255 255 255 255 255 255 255 255 255 255
255 255 255 255 255 255 255 255 255 255 255 255
255 255 255 255 255 255 255 255 255 255 255 255 255 255 255 255 255
255 255 255 255 255 255 255 255 255 255 255 255 255 255 255 255 255
255 255 255 255 255 255 255 255 255 255 255 255 255 255 255 255 255
255 255 255 255 255 255 255 255 255 255 200 200 200 200 200 200 232
232 232 14 14 14 46 46 78 78 255 255 255 255 255 255 255 255
255 255 255 255 255 255 255 255 255 255 255 255 255 255 255 255 255
255 255 255 255 255 255 255 255 255 255 255 255
255 255 255 255 255 255 255 255 255 255 255 255 255 255 255 255 255
255 255 255 255 255 255 255 255 255 255 255 255 255 255 255 255 255
255 255 255 255 255 255 255 255 255 255 255 255 255 255 255 255 255
255 255 255 255 255 255 255 255 255 255 168 168 168 168 168 168 200
200 200 232 232 14 14 14 46 78 255 255 255 255 255 255 255 255
255 255 255 255 255 255 255 255 255 255 255 255 255 255 255 255 255
255 255 255 255 255 255 255 255 255 255 255 255
255 255 255 255 255 255 255 255 255 255 255 255 255 255 255 255 255
255 255 255 255 255 255 255 255 255 255 255 255 255 255 255 255 255
255 255 255 255 255 255 255 255 255 255 255 255 255 255 255 255 255
255 255 255 255 255 255 255 255 255 255 136 136 136 136 136 136 168
168 168 200 200 232 232 14 14 46 255 255 255 255 255 255 255 255
255 255 255 255 255 255 255 255 255 255 255 255 255 255 255 255 255
255 255 255 255 255 255 255 255 255 255 255 255
255 255 255 255 255 255 255 255 255 255 255 255 255 255 255 255 255
255 255 255 255 255 255 255 255 255 255 255 255 255 255 255 255 255
255 255 255 255 255 255 255 255 255 255 255 255 255 255 255 255 255
255 255 255 255 255 255 255 255 255 255 104 104 104 104 104 136 136
136 136 168 168 200 200 232 232 14 255 255 255 255 255 255 255 255
255 255 255 255 255 255 255 255 255 255 255 255 255 255 255 255 255
255 255 255 255 255 255 255 255 255 255 255 255
255 255 255 255 255 255 255 255 255 255 255 255 255 255 255 255 255
255 255 255 255 255 255 255 255 255 255 255 255 255 255 255 255 255
255 255 255 255 255 255 255 255 255 255 255 255 255 255 255 255 255
255 255 255 255 255 255 255 255 255 255 72 72 72 72 72 104 104
104 136 136 136 168 168 200 232 232 255 255 255 255 255 255 255 255
255 255 255 255 255 255 255 255 255 255 255 255 255 255 255 255 255
255 255 255 255 255 255 255 255 255 255 255 255
255 255 255 255 255 255 255 255 255 255 255 255 255 255 255 255 255
255 255 255 255 255 255 255 255 255 255 255 255 255 255 255 255 255
255 255 255 255 255 255 255 255 255 255 255 255 255 255 255 255 255
255 255 255 255 255 255 255 255 255 255 40 40 40 40 40 72 72
72 104 104 104 136 168 168 200 200 255 255 255 255 255 255 255 255
255 255 255 255 255 255 255 255 255 255 255 255 255 255 255 255 255
255 255 255 255 255 255 255 255 255 255 255 255
255 255 255 255 255 255 255 255 255 255 255 255 255 255 255 255 255
255 255 255 255 255 255 255 255 255 255 255 255 255 255 255 255 255
255 255 255 255 255 255 255 255 255 255 255 255 255 255 255 255 255
255 255 255 255 255 255 255 255 255 255 8 8 8 8 8 40 40
40 72 72 104 104 136 136 168 200 255 255 255 255 255 255 255 255
255 255 255 255 255 255 255 255 255 255 255 255 255 255 255 255 255
255 255 255 255 255 255 255 255 255 255 255 255
255 255 255 255 255 255 255 255 255 255 255 255 255 255 255 255 255
255 255 255 255 255 255 255 255 255 255 255 255 255 255 255 255 255
255 255 255 255 255 255 255 255 255 255 255 255 255 255 255 255 255
255 255 255 255 255 255 255 255 255 255 226 226 226 226 226 8 8
8 40 40 72 72 104 136 136 168 255 255 255 255 255 255 255 255
255 255 255 255 255 255 255 255 255 255 255 255 255 255 255 255 255
255 255 255 255 255 255 255 255 255 255 255 255
255 255 255 255 255 255 255 255 255 255 255 255 255 255 255 255 255
255 255 255 255 255 255 255 255 255 255 255 255 255 255 255 255 255
255 255 255 255 255 255 255 255 255 255 255 255 255 255 255 255 255
255 255 255 255 255 255 255 255 255 255 194 194 194 194 194 226 226
226 8 8 40 72 72 104 104 136 255 255 255 255 255 255 255 255
255 255 255 255 255 255 255 255 255 255 255 255 255 255 255 255 255
255 255 255 255 255 255 255 255 255 255 255 255
255 255 255 255 255 255 255 255 255 255 255 255 255 255 255 255 255
255 255 255 255 255 255 255 255 255 255 255 255 255 255 255 255 255
255 255 255 255 255 255 255 255 255 255 255 255 255 255 255 255 255
255 255 255 255 255 255 255 255 255 255 162 162 162 162 162 194 194
226 226 8 8 40 40 72 104 104 255 255 255 255 255 255 255 255
255 255 255 255 255 255 255 255 255 255 255 255 255 255 255 255 255
255 255 255 255 255 255 255 255 255 255 255 255
255 255 255 255 255 255 255 255 255 255 255 255 255 255 255 255 255
255 255 255 255 255 255 255 255 255 255 255 255 255 255 255 255 255
255 255 255 255 255 255 255 255 255 255 255 255 255 255 255 255 255
255 255 255 255 255 255 255 255 255 255 130 130 130 130 162 162 162
194 194 226 226 8 40 40 72 72 255 255 255 255 255 255 255 255
255 255 255 255 255 255 255 255 255 255 255 255 255 255 255 255 255
255 255 255 255 255 255 255 255 255 255 255 255
255 255 255 255 255 255 255 255 255 255 255 255 255 255 255 255 255
255 255 255 255 255 255 255 255 255 255 255 255 255 255 255 255 255
255 255 255 255 255 255 255 255 255 255 255 255 255 255 255 255 255
255 255 255 255 255 255 255 255 255 255 98 98 98 98 130 130 130
162 162 194 226 226 8 8 40 72 255 255 255 255 255 255 255 255
255 255 255 255 255 255 255 255 255 255 255 255 255 255 255 255 255
255 255 255 255 255 255 255 255 255 255 255 255
255 255 255 255 255 255 255 255 255 255 255 255 255 255 255 255 255
255 255 255 255 255 255 255 255 255 255 255 255 255 255 255 255 255
255 255 255 255 255 255 255 255 255 255 255 255 255 255 255 255 255
255 255 255 255 255 255 255 255 255 255 66 66 66 66 98 98 98
130 162 162 194 194 226 8 8 40 255 255 255 255 255 255 255 255
255 255 255 255 255 255 255 255 255 255 255 255 255 255 255 255 255
255 255 255 255 255 255 255 255 255 255 255 255
255 255 255 255 255 255 255 255 255 255 255 255 255 255 255 255 255
255 255 255 255 255 255 255 255 255 255 255 255 255 255 255 255 255
255 255 255 255 255 255 255 255 255 255 255 255 255 255 255 255 255
255 255 255 255 255 255 255 255 255 255 34 34 34 34 66 66 98
98 130 130 162 194 194 226 226 8 255 255 255 255 255 255 255 255
255 255 255 255 255 255 255 255 255 255 255 255 255 255 255 255 255
255 255 255 255 255 255 255 255 255 255 255 255
255 255 255 255 255 255 255 255 255 255 255 255 255 255 255 255 255
255 255 255 255 255 255 255 255 255 255 255 255 255 255 255 255 255
255 255 255 255 255 255 255 255 255 255 255 255 255 255 255 255 255
255 255 255 255 255 255 255 255 255 255 252 252 252 252 34 34 66
66 98 130 130 162 162 194 226 226 255 255 255 255 255 255 255 255
255 255 255 255 255 255 255 255 255 255 255 255 255 255 255 255 255
255 255 255 255 255 255 255 255 255 255 255 255
255 255 255 255 255 255 255 255 255 255 255 255 255 255 255 255 255
255 255 255 255 255 255 255 255 255 255 255 255 255 255 255 255 255
255 255 255 255 255 255 255 255 255 255 255 255 255 255 255 255 255
255 255 255 255 255 255 255 255 255 255 220 220 220 220 252 252 34
66 66 98 98 130 162 162 194 226 255 255 255 255 255 255 255 255
255 255 255 255 255 255 255 255 255 255 255 255 255 255 255 255 255
255 255 255 255 255 255 255 255 255 255 255 255
255 255 255 255 255 255 255 255 255 255 255 255 255 255 255 255 255
255 255 255 255 255 255 255 255 255 255 255 255 255 255 255 255 255
255 255 255 255 255 255 255 255 255 255 255 255 255 255 255 255 255
255 255 255 255 255 255 255 255 255 255 188 188 188 220 220 252 252
34 34 66 98 98 130 130 162 194 255 255 255 255 255 255 255 255
255 255 255 255 255 255 255 255 255 255 255 255 255 255 255 255 255
255 255 255 255 255 255 255 255 255 255 255 255
255 255 255 255 255 255 255 255 255 255 255 255 255 255 255 255 255
255 255 255 255 255 255 255 255 255 255 255 255 255 255 255 255 255
255 255 255 255 255 255 255 255 255 255 255 255 255 255 255 255 255
255 255 255 255 255 255 255 255 255 255 156 156 156 188 188 220 220
252 34 34 66 66 98 130 130 162 255 255 255 255 255 255 255 255
255 255 255 255 255 255 255 255 255 255 255 255 255 255 255 255 255
255 255 255 255 255 255 255 255 255 255 255 255
255 255 255 255 255 255 255 255 255 255 255 255 255 255 255 255 255
255 255 255 255 255 255 255 255 255 255 255 255 255 255 255 255 255
255 255 255 255 255 255 255 255 255 255 255 255 255 255 255 255 255
255 255 255 255 255 255 255 255 255 255 124 124 124 156 156 188 220
220 252 252 34 66 66 98 130 130 255 255 255 255 255 255 255 255
255 255 255 255 255 255 255 255 255 255 255 255 255 255 255 255 255
255 255 255 255 255 255 255 255 255 255 255 255
255 255 255 255 255 255 255 255 255 255 255 255 255 255 255 255 255
255 255 255 255 255 255 255 255 255 255 255 255 255 255 255 255 255
255 255 255 255 255 255 255 255 255 255 255 255 255 255 255 255 255
255 255 255 255 255 255 255 255 255 255 92 92 92 124 156 156 188
188 220 252 252 34 66 66 98 130 255 255 255 255 255 255 255 255
255 255 255 255 255 255 255 255 255 255 255 255 255 255 255 255 255
255 255 255 255 255 255 255 255 255 255 255 255
255 255 255 255 255 255 255 255 255 255 255 255 255 255 255 255 255
255 255 255 255 255 255 255 255 255 255 255 255 255 255 255 255 255
255 255 255 255 255 255 255 255 255 255 255 255 255 255 255 255 255
255 255 255 255 255 255 255 255 255 255 60 60 92 92 124 124 156
188 188 220 220 252 34 66 66 98 255 255 255 255 255 255 255 255
255 255 255 255 255 255 255 255 255 255 255 255 255 255 255 255 255
255 255 255 255 255 255 255 255 255 255 255 255
255 255 255 255 255 255 255 255 255 255 255 255 255 255 255 255 255
255 255 255 255 255 255 255 255 255 255 255 255 255 255 255 255 255
255 255 255 255 255 255 255 255 255 255 255 255 255 255 255 255 255
255 255 255 255 255 255 255 255 255 255 28 28 60 60 92 124 124
156 156 188 220 220 252 34 66 66 255 255 255 255 255 255 255 255
255 255 255 255 255 255 255 255 255 255 255 255 255 255 255 255 255
255 255 255 255 255 255 255 255 255 255 255 255
255 255 255 255 255 255 255 255 255 255 255 255 255 255 255 255 255
255 255 255 255 255 255 255 255 255 255 255 255 255 255 255 255 255
255 255 255 255 255 255 255 255 255 255 255 255 255 255 255 255 255
255 255 255 255 255 255 255 255 255 255 246 246 28 60 60 92 92
124 156 156 188 220 220 252 34 66 255 255 255 255 255 255 255 255
255 255 255 255 255 255 255 255 255 255 255 255 255 255 255 255 255
255 255 255 255 255 255 255 255 255 255 255 255
255 255 255 255 255 255 255 255 255 255 255 255 255 255 255 255 255
255 255 255 255 255 255 255 255 255 255 255 255 255 255 255 255 255
255 255 255 255 255 255 255 255 255 255 255 255 255 255 255 255 255
255 255 255 255 255 255 255 255 255 255 214 246 246 28 28 60 92
92 124 156 156 188 220 252 252 34 255 255 255 255 255 255 255 255
255 255 255 255 255 255 255 255 255 255 255 255 255 255 255 255 255
255 255 255 255 255 255 255 255 255 255 255 255
255 255 255 255 255 255 255 255 255 255 255 255 255 255 255 255 255
255 255 255 255 255 255 255 255 255 255 255 255 255 255 255 255 255
255 255 255 255 255 255 255 255 255 255 255 255 255 255 255 255 255
255 255 255 255 255 255 255 255 255 255 182 214 214 246 28 28 60
92 92 124 156 156 188 220 252 34 255 255 255 255 255 255 255 255
255 255 255 255 255 255 255 255 255 255 255 255 255 255 255 255 255
255 255 255 255 255 255 255 255 255 255 255 255
255 255 255 255 255 255 255 255 255 255 255 255 255 255 255 255 255
255 255 255 255 255 255 255 255 255 255 255 255 255 255 255 255 255
255 255 255 255 80 80 80 112 112 112 144 144 144 176 176 208 208
240 240 22 22 54 54 86 118 118 150 150 182 214 214 246 246 28
60 92 92 124 156 188 188 220 252 34 66 98 98 130 162 194 226
8 40 72 104 104 136 168 200 255 255 255 255 255 255 255 255 255
255 255 255 255 255 255 255 255 255 255 255 255
255 255 255 255 255 255 255 255 255 255 255 255 255 255 255 255 255
255 255 255 255 255 255 255 255 255 255 255 255 255 255 255 255 255
255 255 255 255 48 48 48 80 80 80 112 112 144 144 144 176 176
208 208 240 240 22 54 54 86 86 118 150 150 182 182 214 246 246
28 60 92 92 124 156 188 220 220 252 34 66 98 130 162 194 226
226 8 40 72 104 136 168 200 255 255 255 255 255 255 255 255 255
255 255 255 255 255 255 255 255 255 255 255 255
255 255 255 255 255 255 255 255 255 255 255 255 255 255 255 255 255
255 255 255 255 255 255 255 255 255 255 255 255 255 255 255 255 255
255 255 255 255 16 16 16 48 48 48 80 80 112 112 144 144 176
176 208 208 240 240 22 22 54 86 86 118 118 150 182 182 214 246
246 28 60 92 124 124 156 188 220 252 34 66 66 98 130 162 194
226 8 40 72 104 136 168 200 255 255 255 255 255 255 255 255 255
255 255 255 255 255 255 255 255 255 255 255 255
255 255 255 255 255 255 255 255 255 255 255 255 255 255 255 255 255
255 255 255 255 255 255 255 255 255 255 255 255 255 255 255 255 255
255 255 255 255 234 234 234 16 16 16 48 48 80 80 112 112 144
144 176 176 208 208 240 22 22 54 54 86 118 118 150 182 182 214
246 28 28 60 92 124 156 188 188 220 252 34 66 98 130 162 194
226 8 40 40 72 104 136 168 255 255 255 255 255 255 255 255 255
255 255 255 255 255 255 255 255 255 255 255 255
255 255 255 255 255 255 255 255 255 255 255 255 255 255 255 255 255
255 255 255 255 255 255 255 255 255 255 255 255 255 255 255 255 255
255 255 255 255 202 202 202 234 234 16 16 16 48 48 80 80 112
112 144 144 176 208 208 240 240 22 54 54 86 86 118 150 182 182
214 246 28 60 92 92 124 156 188 220 252 34 66 98 98 130 162
194 226 8 40 72 104 136 168 255 255 255 255 255 255 255 255 255
255 255 255 255 255 255 255 255 255 255 255 255
255 255 255 255 255 255 255 255 255 255 255 255 255 255 255 255 255
255 255 255 255 255 255 255 255 255 255 255 255 255 255 255 255 255
255 255 255 255 170 170 202 202 202 234 234 16 16 16 48 48 80
80 112 144 144 176 176 208 240 240 22 22 54 86 86 118 150 182
214 214 246 28 60 92 124 156 188 188 220 252 34 66 98 130 162
194 226 8 40 72 104 136 168 255 255 255 255 255 255 255 255 255
255 255 255 255 255 255 255 255 255 255 255 255
255 255 255 255 255 255 255 255 255 255 255 255 255 255 255 255 255
255 255 255 255 255 255 255 255 255 255 255 255 255 255 255 255 255
255 255 255 255 138 138 170 170 170 202 202 234 234 16 16 48 48
80 80 112 112 144 176 176 208 208 240 22 22 54 86 118 118 150
182 214 246 28 60 60 92 124 156 188 220 252 34 66 98 130 162
194 226 8 40 72 72 104 136 255 255 255 255 255 255 255 255 255
255 255 255 255 255 255 255 255 255 255 255 255
255 255 255 255 255 255 255 255 255 255 255 255 255 255 255 255 255
255 255 255 255 255 255 255 255 255 255 255 255 255 255 255 255 255
255 255 255 255 106 106 138 138 138 170 170 202 202 234 234 16 16
48 48 80 112 112 144 144 176 208 208 240 22 22 54 86 118 150
182 182 214 246 28 60 92 124 156 188 220 252 34 66 66 98 130
162 194 226 8 40 72 104 136 255 255 255 255 255 255 255 255 255
255 255 255 255 255 255 255 255 255 255 255 255
255 255 255 255 255 255 255 255 255 255 255 255 255 255 255 255 255
255 255 255 255 255 255 255 255 255 255 255 255 255 255 255 255 255
255 255 255 255 74 74 106 106 106 138 138 170 170 202 202 234 234
16 48 48 80 80 112 144 144 176 176 208 240 22 54 54 86 118
150 182 214 246 28 60 92 124 124 156 188 220 252 34 66 98 130
162 194 226 8 40 72 104 136 255 255 255 255 255 255 255 255 255
255 255 255 255 255 255 255 255 255 255 255 255
255 255 255 255 255 255 255 255 255 255 255 255 255 255 255 255 255
255 255 255 255 255 255 255 255 255 255 255 255 255 255 255 255 255
255 255 255 255 42 42 74 74 106 106 138 138 138 170 202 202 234
234 16 16 48 80 80 112 112 144 176 208 208 240 22 54 86 118
150 182 182 214 246 28 60 92 124 156 188 220 252 34 66 98 130
162 194 226 8 40 72 104 136 255 255 255 255 255 255 255 255 255
255 255 255 255 255 255 255 255 255 255 255 255
255 255 255 255 255 255 255 255 255 255 255 255 255 255 255 255 255
255 255 255 255 255 255 255 255 255 255 255 255 255 255 255 255 255
255 255 255 255 10 10 42 42 74 74 106 106 138 138 170 170 202
202 234 16 16 48 48 80 112 112 144 176 208 240 22 22 54 86
118 150 182 214 246 28 60 92 124 156 188 220 252 34 66 98 130
162 194 226 8 40 72 104 136 255 255 255 255 255 255 255 255 255
255 255 255 255 255 255 255 255 255 255 255 255
255 255 255 255 255 255 255 255 255 255 255 255 255 255 255 255 255
255 255 255 255 255 255 255 255 255 255 255 255 255 255 255 255 255
255 255 255 255 228 10 10 10 42 42 74 74 106 106 138 138 170
202 202 234 234 16 48 48 80 112 144 144 176 208 240 22 54 86
118 150 182 214 246 28 60 92 124 156 188 220 252 34 66 98 130
162 194 226 8 40 72 72 104 255 255 255 255 255 255 255 255 255
255 255 255 255 255 255 255 255 255 255 255 255
255 255 255 255 255 255 255 255 255 255 255 255 255 255 255 255 255
255 255 255 255 255 255 255 255 255 255 255 255 255 255 255 255 255
255 255 255 255 196 228 228 228 10 10 42 42 74 74 106 138 138
170 170 202 234 234 16 48 48 80 112 144 176 208 240 22 54 86
118 150 182 214 246 28 60 92 124 124 156 188 220 252 34 66 98
130 162 194 226 8 40 72 104 255 255 255 255 255 255 255 255 255
255 255 255 255 255 255 255 255 255 255 255 255
255 255 255 255 255 255 255 255 255 255 255 255 255 255 255 255 255
255 255 255 255 255 255 255 255 255 255 255 255 255 255 255 255 255
255 255 255 255 164 196 196 228 228 10 10 42 42 74 74 106 106
138 170 170 202 202 234 16 48 80 112 144 176 208 240 22 22 54
86 118 150 182 214 246 28 60 92 124 156 188 220 252 34 66 98
130 162 194 226 8 40 72 104 136 168 200 232 14 46 78 110 142
174 206 255 255 255 255 255 255 255 255 255 255
255 255 255 255 255 255 255 255 255 255 255 255 255 255 255 255 255
255 255 255 255 255 255 255 255 255 255 255 255 255 255 255 255 255
255 255 255 255 132 164 164 196 196 228 228 10 10 42 42 74 106
106 138 138 170 202 234 16 48 48 80 112 144 176 208 240 22 54
86 118 150 182 214 246 28 60 92 124 156 188 220 252 34 66 98
130 162 194 226 8 40 72 104 136 168 200 232 14 46 78 110 142
174 206 255 255 255 255 255 255 255 255 255 255
255 255 255 255 255 255 255 255 255 255 255 255 255 255 255 255 255
255 255 255 255 255 255 255 255 255 255 255 255 255 255 255 255 255
255 255 255 255 100 132 132 164 164 196 196 228 228 10 42 42 74
74 106 138 138 170 202 234 16 48 80 112 144 176 208 240 22 54
86 118 150 182 214 246 28 60 92 124 156 188 220 252 34 66 98
130 162 194 226 8 40 72 104 136 168 200 232 14 46 78 110 142
174 206 255 255 255 255 255 255 255 255 255 255
255 255 255 255 255 255 255 36 254 254 254 254 222 222 222 222 222
222 222 222 222 222 222 222 222 222 222 222 222 254 254 254 254 36
36 36 68 68 100 100 100 132 132 164 164 196 228 228 10 10 42
74 74 106 138 170 202 234 16 48 80 112 144 176 208 240 22 54
86 118 150 182 214 246 28 60 92 124 156 188 220 252 34 66 98
130 162 194 226 8 40 72 104 136 168 200 232 14 46 78 110 142
174 206 255 255 255 255 255 255 255 255 255 255
255 255 255 255 255 255 255 254 222 222 222 222 190 190 190 190 190
190 190 190 190 190 190 190 190 190 190 190 190 222 222 222 222 254
254 254 36 36 68 68 100 100 132 132 164 164 196 196 228 10 10
42 255 255 255 255 255 255 255 255 255 255 255 255 255 255 255 255
255 255 255 255 255 255 255 255 255 255 255 255 255 252 34 66 98
130 162 194 226 8 40 72 104 136 168 200 232 14 46 78 110 142
174 206 255 255 255 255 255 255 255 255 255 255
255 255 255 255 255 255 255 222 190 190 190 190 158 158 158 158 158
158 158 158 158 158 158 158 158 158 158 158 158 190 190 190 190 222
222 254 254 254 36 36 68 68 100 100 132 132 164 196 196 228 228
10 255 255 255 255 255 255 255 255 255 255 255 255 255 255 255 255
255 255 255 255 255 255 255 255 255 255 255 255 255 34 66 66 98
130 162 194 226 8 40 72 104 136 168 200 232 14 46 78 110 142
174 206 255 255 255 255 255 255 255 255 255 255
255 255 255 255 255 255 255 190 190 158 158 158 126 126 126 126 126
126 126 126 126 126 126 126 126 126 126 126 126 158 158 158 190 190
190 222 222 222 254 254 36 36 68 68 100 132 132 164 164 196 228
228 255 255 255 255 255 255 255 255 255 255 255 255 255 255 255 255
255 255 255 255 255 255 255 255 255 255 255 255 255 66 66 98 130
162 194 226 226 8 40 72 104 136 168 200 232 14 46 78 110 142
174 206 255 255 255 255 255 255 255 255 255 255
255 255 255 255 255 255 255 158 158 126 126 126 94 94 94 94 94
94 94 94 94 94 94 94 94 94 94 94 94 126 126 126 158 158
158 190 190 222 222 222 254 254 36 68 68 100 100 132 164 164 196
228 255 255 255 255 255 255 255 255 255 255 255 255 255 255 255 255
255 255 255 255 255 255 255 255 255 255 255 255 255 98 98 130 130
162 194 226 8 40 72 104 136 168 200 232 232 14 46 78 110 142
174 206 255 255 255 255 255 255 255 255 255 255
255 255 255 255 255 255 255 126 126 94 94 94 62 62 62 62 62
62 62 62 62 62 62 62 62 62 62 62 62 94 94 94 126 126
126 158 158 190 190 222 222 254 254 36 36 68 100 100 132 132 164
196 255 255 255 255 255 255 255 255 255 255 255 255 255 255 255 255
255 255 255 255 255 255 255 255 255 255 255 255 255 130 130 162 162
194 226 226 8 40 72 104 136 168 200 232 14 46 78 110 142 174
206 238 255 255 255 255 255 255 255 255 255 255
255 255 255 255 255 255 255 94 94 62 62 62 30 30 30 30 30
30 30 30 30 30 30 30 30 30 30 30 30 62 62 62 94 94
94 126 126 158 158 190 190 222 222 254 36 36 68 68 100 132 132
164 255 255 255 255 255 255 255 255 255 255 255 255 255 255 255 255
255 255 255 255 255 255 255 255 255 255 255 255 255 162 162 194 194
226 226 8 40 72 72 104 136 168 200 232 14 46 78 110 142 174
206 238 255 255 255 255 255 255 255 255 255 255
255 255 255 255 255 255 255 62 62 30 30 30 30 248 248 248 248
248 248 248 248 248 248 248 248 248 248 248 30 30 30 30 62 62
94 94 94 126 126 158 158 190 222 222 254 254 36 68 68 100 132
132 255 255 255 255 255 255 255 255 255 255 255 255 255 255 255 255
255 255 255 255 255 255 255 255 255 255 255 255 255 194 194 226 226
226 8 40 40 72 104 136 168 200 232 232 14 46 78 110 142 174
206 238 255 255 255 255 255 255 255 255 255 255
255 255 255 255 255 255 255 30 30 248 248 248 248 216 216 216 216
216 216 216 216 216 216 216 216 216 216 216 248 248 248 248 30 30
62 62 94 94 94 126 158 158 190 190 222 254 254 36 68 68 100
132 255 255 255 255 255 255 255 255 255 255 255 255 255 255 255 255
255 255 255 255 255 255 255 255 255 255 255 255 255 226 226 226 8
8 40 40 72 104 136 136 168 200 232 14 46 78 110 142 142 174
206 238 255 255 255 255 255 255 255 255 255 255
255 255 255 255 255 255 255 248 248 248 216 216 216 184 184 184 184
184 184 184 184 184 184 184 184 184 184 184 216 216 216 248 248 248
30 30 62 62 94 94 126 126 158 190 190 222 222 254 36 68 68
100 255 255 255 255 255 255 255 255 255 255 255 255 255 112 144 144
176 176 208 208 255 255 255 255 255 255 255 255 255 8 8 8 40
40 72 72 104 136 136 168 200 232 232 14 46 78 110 142 174 206
238 20 255 255 255 255 255 255 255 255 255 255
255 255 255 255 255 255 255 216 216 216 184 184 184 152 152 152 152
152 152 152 152 152 152 152 152 152 152 152 184 184 184 216 216 216
248 248 30 30 62 62 94 126 126 158 158 190 222 222 254 36 68
68 255 255 255 255 255 255 255 255 255 255 255 255 80 80 112 112
144 144 176 176 208 240 240 22 255 255 255 255 255 40 40 40 72
72 72 104 136 136 168 200 200 232 14 46 78 110 110 142 174 206
238 20 255 255 255 255 255 255 255 255 255 255
255 255 255 255 255 255 255 184 184 184 152 152 152 120 120 120 120
120 120 120 120 120 120 120 120 120 120 120 152 152 152 184 184 184
216 216 248 248 30 62 62 94 94 126 158 158 190 222 222 254 36
68 255 255 255 255 255 255 255 255 255 255 255 48 48 48 80 80
112 112 144 176 176 208 240 240 22 255 255 255 255 72 72 72 104
104 104 136 136 168 200 200 232 14 46 46 78 110 142 174 206 238
238 20 255 255 255 255 255 255 255 255 255 255
255 255 255 255 255 255 255 184 152 152 120 120 120 88 88 88 88
88 88 88 88 88 88 88 88 88 88 88 120 120 120 152 152 184
184 216 216 248 248 30 30 62 94 94 126 158 158 190 222 222 254
36 255 255 255 255 255 255 255 255 255 255 16 16 16 48 48 48
80 112 112 144 144 176 208 240 240 255 255 255 255 104 104 104 136
136 136 168 168 200 200 232 14 14 46 78 110 142 142 174 206 238
20 52 255 255 255 255 255 255 255 255 255 255
255 255 255 255 255 255 255 152 120 120 88 88 88 56 56 56 56
56 56 56 56 56 56 56 56 56 56 56 88 88 88 120 120 152
152 184 184 216 216 248 30 30 62 62 94 126 158 158 190 222 254
254 255 255 255 255 255 255 255 255 255 202 234 234 234 16 16 48
48 80 80 112 144 144 176 208 240 255 255 255 255 136 136 136 168
168 168 200 200 232 232 14 14 46 78 110 110 142 174 206 238 20
20 52 255 255 255 255 255 255 255 255 255 255
255 255 255 255 255 255 255 120 88 88 88 56 56 56 24 24 24
24 24 24 24 24 24 24 24 24 24 56 56 56 88 88 88 120
120 152 152 184 216 216 248 248 30 62 62 94 126 158 158 190 222
254 255 255 255 255 255 255 255 255 170 170 202 202 202 234 234 16
16 48 80 80 112 144 176 176 208 255 255 255 255 168 168 168 200
200 200 232 232 232 14 46 46 78 110 110 142 174 206 206 238 20
52 84 255 255 255 255 255 255 255 255 255 255
255 255 255 255 255 255 255 88 56 56 56 24 24 24 242 242 242
242 242 242 242 242 242 242 242 242 242 24 24 24 56 56 56 88
88 120 152 152 184 184 216 248 248 30 62 62 94 126 158 190 190
222 255 255 255 255 255 255 255 138 138 138 170 170 170 202 202 234
16 16 48 80 80 112 144 176 208 255 255 255 255 200 200 200 232
232 232 232 14 14 46 46 78 110 110 142 174 174 206 238 20 20
52 52 255 255 255 255 255 255 255 255 255 255
255 255 255 255 255 255 255 56 56 24 24 242 242 242 210 210 210
210 210 210 210 210 210 210 210 210 210 242 242 242 24 24 56 56
88 88 120 120 152 184 184 216 248 248 30 62 94 94 126 158 190
222 255 255 255 255 255 255 255 106 106 138 138 138 138 170 202 202
234 234 16 48 80 112 112 144 176 255 255 255 255 232 232 232 232
14 14 14 46 46 78 78 110 110 142 142 174 174 206 206 238 238
20 20 255 255 255 255 255 255 255 255 255 255
255 255 255 255 255 255 255 24 24 242 242 210 210 210 178 178 178
178 178 178 178 178 178 178 178 178 178 210 210 210 242 242 24 24
56 56 88 120 120 152 184 184 216 248 248 30 62 94 126 126 158
190 255 255 255 255 255 255 255 74 74 106 106 106 138 138 170 170
202 234 16 16 48 80 112 144 176 255 255 255 255 14 14 14 14
46 46 46 46 78 78 78 78 110 110 142 142 142 174 174 206 206
238 238 255 255 255 255 255 255 255 255 255 255
255 255 255 255 255 255 255 242 242 210 210 178 178 178 146 146 146
146 146 146 146 146 146 146 146 146 146 178 178 178 210 210 242 242
24 56 56 88 88 120 152 184 184 216 248 30 30 62 94 126 158
158 255 255 255 255 255 255 255 42 42 74 74 74 106 106 138 170
170 202 234 16 48 48 80 112 255 255 255 255 255 14 14 14 14
14 14 14 14 46 46 46 46 78 78 110 110 110 142 142 174 174
206 238 255 255 255 255 255 255 255 255 255 255
255 255 255 255 255 255 255 242 210 178 178 178 146 146 114 114 114
114 114 114 114 114 114 114 114 114 114 146 146 178 178 178 210 242
242 24 24 56 88 88 120 152 184 184 216 248 30 62 62 94 126
158 255 255 255 255 255 255 255 10 10 42 42 42 74 106 106 138
170 202 202 234 16 48 80 112 255 255 255 255 255 232 232 232 232
232 232 232 232 14 14 14 46 46 46 78 78 110 110 142 142 174
174 206 255 255 255 255 255 255 255 255 255 255
255 255 255 255 255 255 255 210 178 178 146 146 114 114 82 82 82
82 82 82 82 82 82 82 82 82 82 114 114 146 146 178 178 210
210 242 24 24 56 88 88 120 152 184 216 216 248 30 62 94 94
126 255 255 255 255 255 255 255 228 228 10 10 42 42 74 106 106
138 170 202 234 16 48 48 80 112 255 255 255 255 200 200 200 200
200 200 200 200 232 232 232 14 14 14 46 46 78 78 110 110 142
142 174 255 255 255 255 255 255 255 255 255 255
255 255 255 255 255 255 255 178 146 146 114 114 82 82 82 50 50
50 50 50 50 50 50 50 50 50 82 82 82 114 114 146 146 178
210 210 242 24 24 56 88 120 120 152 184 216 248 248 30 62 94
126 255 255 255 255 255 255 255 196 196 228 228 10 10 42 74 106
138 138 170 202 234 16 48 80 112 255 255 255 255 168 168 168 168
168 168 168 168 200 200 200 232 232 232 14 14 46 46 78 78 110
142 142 255 255 255 255 255 255 255 255 255 255
255 255 255 255 255 255 255 146 146 114 82 82 50 50 50 18 18
18 18 18 18 18 18 18 18 18 50 50 50 82 82 114 146 146
178 178 210 242 24 24 56 88 120 152 152 184 216 248 30 62 94
94 255 255 255 255 255 255 255 164 164 196 196 228 10 42 42 74
106 138 170 202 234 16 48 80 112 255 255 255 255 136 136 136 136
136 136 136 136 168 168 168 200 200 232 232 232 14 14 46 78 78
110 110 255 255 255 255 255 255 255 255 255 255
255 255 255 255 255 255 255 114 114 82 82 50 50 18 18 236 236
236 236 236 236 236 236 236 236 236 18 18 50 50 82 82 114 114
146 178 178 210 242 24 56 56 88 120 152 184 216 216 248 30 62
94 255 255 255 255 255 255 255 132 132 164 196 196 228 10 42 74
106 138 170 202 234 16 48 80 80 255 255 255 255 104 104 104 104
104 104 104 104 136 136 136 168 168 200 200 232 232 14 14 46 46
78 110 255 255 255 255 255 255 255 255 255 255
255 255 255 255 255 255 255 114 82 50 50 18 18 236 236 204 204
204 204 204 204 204 204 204 204 204 236 236 18 18 50 50 82 114
114 146 178 210 210 242 24 56 88 88 120 152 184 216 248 30 62
94 255 255 255 255 255 255 255 100 132 132 164 196 228 10 42 74
106 106 138 170 202 234 16 48 80 255 255 255 255 72 72 72 72
72 72 72 104 104 104 104 136 136 168 168 200 200 232 232 14 46
46 78 255 255 255 255 255 255 255 255 255 255
255 255 255 255 255 255 255 82 50 50 18 236 236 204 204 172 172
172 172 172 172 172 172 172 172 172 204 204 236 236 18 50 50 82
114 114 146 178 210 242 242 24 56 88 120 152 184 184 216 248 30
62 255 255 255 255 255 255 255 68 100 132 132 164 196 228 10 42
74 106 138 170 202 234 16 48 80 255 255 255 255 40 40 40 40
40 40 40 72 72 72 104 104 104 136 136 168 168 200 232 232 14
14 46 255 255 255 255 255 255 255 255 255 255
255 255 255 255 255 255 255 50 18 18 236 236 204 172 172 172 140
140 140 140 140 140 140 140 140 172 172 172 204 236 236 18 18 50
82 114 146 146 178 210 242 24 56 56 88 120 152 184 216 248 30
62 255 255 255 255 255 255 255 36 68 100 132 164 196 228 10 42
74 106 138 170 202 234 16 48 80 255 255 255 255 8 8 8 8
8 8 8 40 40 40 72 72 104 104 104 136 168 168 200 200 232
14 14 255 255 255 255 255 255 255 255 255 255
255 255 255 255 255 255 255 50 18 236 204 204 172 172 140 140 108
108 108 108 108 108 108 108 108 140 140 172 172 204 204 236 18 50
50 82 114 146 178 178 210 242 24 56 88 120 152 184 216 248 248
30 62 94 126 158 190 222 254 36 68 100 132 164 196 228 10 42
74 106 138 170 202 234 16 48 80 255 255 255 255 226 226 226 226
226 226 226 8 8 8 40 40 72 72 104 104 136 136 168 200 200
232 14 255 255 255 255 255 255 255 255 255 255
255 255 255 255 255 255 255 18 236 204 204 172 140 140 108 108 76
76 76 76 76 76 76 76 76 108 108 140 140 172 204 204 236 18
50 82 82 114 146 178 210 242 24 56 88 88 120 152 184 216 248
30 62 94 126 158 190 222 254 36 68 100 132 164 196 228 10 42
74 106 106 138 170 202 234 16 48 255 255 255 255 194 194 194 194
194 194 194 226 226 226 8 8 40 40 72 72 104 136 136 168 200
200 232 255 255 255 255 255 255 255 255 255 255
255 255 255 255 255 255 255 236 236 204 172 140 140 108 76 76 44
44 44 44 44 44 44 44 44 76 76 108 140 140 172 204 236 236
18 50 82 114 146 178 178 210 242 24 56 88 120 152 184 216 248
30 62 94 126 158 190 222 254 36 68 68 100 132 164 196 228 10
42 74 106 138 170 202 234 16 48 255 255 255 255 162 162 162 162
162 162 162 194 194 226 226 226 8 8 40 72 72 104 104 136 168
200 200 255 255 255 255 255 255 255 255 255 255
255 255 255 255 255 255 255 236 204 172 140 140 108 76 76 44 12
12 12 12 12 12 12 12 12 44 76 76 108 140 140 172 204 236
18 50 50 82 114 146 178 210 242 24 56 88 120 152 184 216 248
30 30 62 94 126 158 190 222 254 36 68 100 132 164 196 228 10
42 74 106 138 170 202 234 16 48 255 255 255 255 130 130 130 130
130 130 130 162 162 194 194 226 226 8 8 40 40 72 104 104 136
168 200 255 255 255 255 255 255 255 255 255 255
255 255 255 255 255 255 255 204 172 172 140 108 76 44 44 12 12
230 230 230 230 230 230 230 12 12 44 44 76 108 140 172 172 204
236 18 50 82 114 146 178 210 242 24 56 56 88 120 152 184 216
248 30 62 94 126 158 190 222 254 36 68 100 132 164 196 228 10
42 74 106 138 170 202 234 16 48 255 255 255 255 98 98 98 98
98 98 130 130 130 162 162 194 194 226 226 8 40 40 72 104 104
136 168 255 255 255 255 255 255 255 255 255 255
255 255 255 255 255 255 255 204 172 140 108 76 76 44 12 230 230
198 198 198 198 198 198 198 230 230 12 44 76 76 108 140 172 204
236 18 50 82 82 114 146 178 210 242 24 56 88 120 152 184 216
248 30 62 94 126 158 190 222 254 36 68 100 132 164 196 228 10
42 74 106 138 170 202 234 16 48 80 255 255 255 66 66 66 66
66 66 98 98 98 130 130 162 162 194 226 226 8 40 40 72 104
136 136 255 255 255 255 255 255 255 255 255 255
255 255 255 255 255 255 255 172 172 140 108 76 44 12 230 230 198
166 166 166 166 166 166 166 198 230 230 12 44 76 108 140 172 172
204 236 18 50 82 114 146 178 210 242 24 56 88 120 152 184 216
248 30 62 94 126 158 190 222 254 36 68 100 132 164 196 228 10
42 74 106 138 170 202 234 16 48 80 255 255 255 34 34 34 34
34 34 66 66 66 98 98 130 162 162 194 226 226 8 40 40 72
104 136 255 255 255 255 255 255 255 255 255 255
255 255 255 255 255 255 255 172 140 108 76 44 12 12 230 198 166
166 134 134 134 134 134 166 166 198 230 12 12 44 76 108 140 172
204 236 18 50 82 114 146 178 210 242 24 56 88 120 152 184 216
248 30 62 94 126 158 190 222 254 36 68 100 132 164 196 228 10
42 74 106 138 170 202 234 16 48 80 255 255 255 252 252 252 252
252 252 34 34 66 66 98 98 130 130 162 194 226 226 8 40 72
72 104 255 255 255 255 255 255 255 255 255 255
255 255 255 255 255 255 255 172 140 108 76 44 12 230 198 166 166
134 102 102 102 102 102 134 166 166 198 230 12 44 76 108 140 172
204 236 18 50 82 114 146 178 210 242 24 56 88 120 152 184 216
248 30 62 94 126 158 190 222 254 36 68 100 132 164 196 228 10
42 74 106 138 170 202 234 16 48 80 255 255 255 220 220 220 220
220 220 252 252 34 34 66 66 98 130 130 162 194 226 226 8 40
72 104 255 255 255 255 255 255 255 255 255 255
255 255 255 255 255 255 255 172 140 108 76 44 12 230 198 166 134
102 70 70 70 70 70 102 134 166 198 230 12 44 76 108 140 172
204 236 18 50 82 114 146 178 210 242 24 56 88 120 152 184 216
248 255 255 255 255 255 255 255 255 255 255 255 255 255 255 255 255
42 74 106 138 170 202 234 16 48 80 255 255 255 188 188 188 188
188 220 220 220 252 252 34 66 66 98 130 130 162 194 226 8 8
40 72 255 255 255 255 255 255 255 255 255 255
255 255 255 255 255 255 255 172 140 108 76 44 12 230 198 166 134
102 70 38 38 38 70 102 134 166 198 230 12 44 76 108 140 172
204 236 18 50 82 114 146 178 210 242 24 56 88 120 152 184 216
248 255 255 255 255 255 255 255 255 255 255 255 255 255 255 255 255
74 74 106 138 170 202 234 16 48 80 255 255 255 156 156 156 156
156 188 188 188 220 252 252 34 66 66 98 130 162 162 194 226 8
40 72 255 255 255 255 255 255 255 255 255 255
255 255 255 255 255 255 255 172 140 108 76 44 12 230 198 166 134
102 70 38 6 38 70 102 134 166 198 230 12 44 76 108 140 172
204 236 18 50 82 114 146 178 210 242 24 56 88 120 152 184 216
248 255 255 255 255 255 255 255 255 255 255 255 255 255 255 255 255
106 106 138 170 170 202 234 16 48 255 255 255 255 124 124 124 124
124 156 156 188 188 220 220 252 34 66 66 98 130 162 194 226 226
8 40 255 255 255 255 255 255 255 255 255 255
255 255 255 255 255 255 255 172 140 108 76 44 12 230 198 166 134
102 70 38 38 38 70 102 134 166 198 230 12 44 76 108 140 172
204 236 18 50 82 114 146 178 210 242 24 56 88 120 152 184 216
248 255 255 255 255 255 255 255 255 255 255 255 255 255 255 255 255
138 138 170 170 202 234 16 48 48 255 255 255 255 92 92 92 92
92 124 124 156 156 188 220 220 252 34 66 98 98 130 162 194 226
8 40 255 255 255 255 255 255 255 255 255 255
255 255 255 255 255 255 255 172 140 108 76 44 12 230 198 166 134
102 70 70 70 70 70 102 134 166 198 230 12 44 76 108 140 172
204 236 18 50 82 114 146 178 210 242 24 56 88 120 152 184 216
248 255 255 255 255 255 255 255 255 255 255 255 255 255 255 255 255
170 170 170 202 234 234 16 48 80 255 255 255 255 60 60 60 60
60 92 92 124 156 156 188 220 252 252 34 66 98 130 162 194 226
226 8 255 255 255 255 255 255 255 255 255 255
255 255 255 255 255 255 255 172 140 108 76 44 12 230 198 166 166
134 102 102 102 102 102 134 166 166 198 230 12 44 76 108 140 172
204 236 18 50 82 114 146 178 210 242 24 56 88 120 152 184 216
248 255 255 255 255 255 255 255 255 255 255 255 255 255 255 255 255
202 202 202 234 234 16 48 80 80 255 255 255 255 28 28 28 28
60 60 92 92 124 156 156 188 220 252 34 66 66 98 130 162 194
226 8 255 255 255 255 255 255 255 255 255 255
255 255 255 255 255 255 255 172 140 108 76 44 12 12 230 198 166
166 134 134 134 134 134 166 166 198 230 12 12 44 76 108 140 172
204 236 18 50 82 114 146 178 210 242 24 56 88 120 152 184 216
248 255 255 255 255 255 255 255 255 255 255 255 255 255 255 255 255
234 234 234 16 16 48 48 80 255 255 255 255 255 246 246 246 246
28 28 60 60 92 124 156 188 188 220 252 34 66 98 130 162 194
226 8 255 255 255 255 255 255 255 255 255 255
255 255 255 255 255 255 255 172 172 140 108 76 44 12 230 230 198
166 166 166 166 166 166 166 198 230 230 12 44 76 108 140 172 172
204 236 18 50 82 114 146 178 210 242 24 56 88 120 152 184 216
248 255 255 255 255 255 255 255 255 255 255 255 255 255 255 255 255
16 16 16 48 48 80 80 255 255 255 255 255 255 214 214 214 214
246 246 28 60 92 92 124 156 188 220 252 34 66 98 130 130 162
194 226 255 255 255 255 255 255 255 255 255 255
255 255 255 255 255 255 255 204 172 140 108 76 76 44 12 230 230
198 198 198 198 198 198 198 230 230 12 44 76 76 108 140 172 204
236 18 50 82 82 114 146 178 210 242 24 56 88 120 152 184 216
248 255 255 255 255 255 255 255 255 255 255 255 255 255 255 255 255
48 48 48 48 80 80 255 255 255 255 255 255 255 182 182 182 182
214 246 246 28 60 92 124 156 188 220 220 252 34 66 98 130 162
194 226 255 255 255 255 255 255 255 255 255 255
255 255 255 255 255 255 255 204 172 172 140 108 76 44 44 12 12
230 230 230 230 230 230 230 12 12 44 44 76 108 140 172 172 204
236 18 50 82 114 146 178 210 242 24 56 56 88 120 152 184 216
248 255 255 255 255 255 255 255 255 255 255 255 255 255 255 255 255
80 80 80 80 112 255 255 255 255 255 255 255 255 150 150 150 182
182 214 246 28 60 60 92 124 156 188 220 252 34 66 98 130 162
194 226 255 255 255 255 255 255 255 255 255 255
255 255 255 255 255 255 255 236 204 172 140 140 108 76 76 44 12
12 12 12 12 12 12 12 12 44 76 76 108 140 140 172 204 236
18 50 50 82 114 146 178 210 242 24 56 88 120 152 184 216 248
30 255 255 255 255 255 255 255 255 255 255 255 255 255 255 255 255
112 112 112 112 144 255 255 255 255 255 255 255 255 118 118 118 150
182 182 214 246 28 60 92 124 156 188 220 252 34 66 98 130 162
194 226 255 255 255 255 255 255 255 255 255 255
255 255 255 255 255 255 255 236 236 204 172 140 140 108 76 76 44
44 44 44 44 44 44 44 44 76 76 108 140 140 172 204 236 236
18 50 82 114 146 178 178 210 242 24 56 88 120 152 184 216 248
30 255 255 255 255 255 255 255 255 255 255 255 255 255 255 255 255
144 144 144 255 255 255 255 255 255 255 255 255 255 86 86 86 118
150 182 214 246 28 60 92 124 156 188 220 252 34 66 98 130 162
194 226 255 255 255 255 255 255 255 255 255 255
255 255 255 255 255 255 255 18 236 204 204 172 140 140 108 108 76
76 76 76 76 76 76 76 76 108 108 140 140 172 204 204 236 18
50 82 82 114 146 178 210 242 24 56 88 88 120 152 184 216 248
30 255 255 255 255 255 255 255 255 255 255 255 255 255 255 255 255
255 255 255 255 255 255 255 255 255 255 255 255 255 54 54 86 118
150 182 214 246 28 60 92 124 156 188 220 252 34 66 98 130 162
194 226 255 255 255 255 255 255 255 255 255 255
255 255 255 255 255 255 255 50 18 236 204 204 172 172 140 140 108
108 108 108 108 108 108 108 108 140 140 172 172 204 204 236 18 50
50 82 114 146 178 178 210 242 24 56 88 120 152 184 216 248 248
30 255 255 255 255 255 255 255 255 255 255 255 255 255 255 255 255
255 255 255 255 255 255 255 255 255 255 255 255 255 22 54 86 118
150 182 214 246 28 60 92 124 156 188 220 252 34 66 98 130 162
194 226 255 255 255 255 255 255 255 255 255 255
255 255 255 255 255 255 255 50 18 18 236 236 204 172 172 172 140
140 140 140 140 140 140 140 140 172 172 172 204 236 236 18 18 50
82 114 146 146 178 210 242 24 56 56 88 120 152 184 216 248 30
62 94 126 158 190 222 254 36 68 100 132 164 196 228 10 42 74
106 138 170 202 234 16 48 80 112 144 176 208 240 22 54 86 118
150 182 214 246 28 60 92 124 156 188 220 252 34 66 98 130 162
194 226 255 255 255 255 255 255 255 255 255 255
255 255 255 255 255 255 255 82 50 50 18 236 236 204 204 172 172
172 172 172 172 172 172 172 172 172 204 204 236 236 18 50 50 82
114 114 146 178 210 242 242 24 56 88 120 152 184 184 216 248 30
62 94 126 158 190 222 254 36 68 100 132 164 196 228 10 42 74
106 138 170 202 234 16 48 80 112 144 176 208 240 22 54 86 118
150 182 214 246 28 60 92 124 156 188 220 252 34 66 98 130 162
194 226 255 255 255 255 255 255 255 255 255 255
255 255 255 255 255 255 255 114 82 50 50 18 18 236 236 204 204
204 204 204 204 204 204 204 204 204 236 236 18 18 50 50 82 114
114 146 178 210 210 242 24 56 88 88 120 152 184 216 248 30 62
94 94 126 158 190 222 254 36 68 100 132 164 196 228 10 42 74
106 138 170 202 234 16 48 80 112 144 176 208 240 22 54 86 118
150 182 214 246 28 60 92 124 156 188 220 252 34 66 98 130 162
194 226 255 255 255 255 255 255 255 255 255 255
255 255 255 255 255 255 255 114 114 82 82 50 50 18 18 236 236
236 236 236 236 236 236 236 236 236 18 18 50 50 82 82 114 114
146 178 178 210 242 24 56 56 88 120 152 184 216 216 248 30 62
94 126 158 190 222 254 254 36 68 100 132 164 196 228 10 42 74
106 138 170 202 234 16 48 80 112 144 176 208 240 22 54 86 118
150 182 214 246 28 60 92 124 156 188 220 252 34 66 98 130 162
194 226 255 255 255 255 255 255 255 255 255 255
255 255 255 255 255 255 255 146 146 114 82 82 50 50 50 18 18
18 18 18 18 18 18 18 18 18 50 50 50 82 82 114 146 146
178 178 210 242 24 24 56 88 120 152 152 184 216 248 30 62 94
94 126 158 190 222 254 36 68 100 132 164 164 196 228 10 42 74
106 138 170 202 234 16 48 80 112 144 176 208 240 22 54 86 118
150 182 214 246 28 60 92 124 156 188 220 252 34 66 98 130 162
194 226 255 255 255 255 255 255 255 255 255 255
255 255 255 255 255 255 255 178 146 146 114 114 82 82 82 50 50
50 50 50 50 50 50 50 50 50 82 82 82 114 114 146 146 178
210 210 242 24 24 56 88 120 120 152 184 216 248 248 30 62 94
126 158 190 222 222 254 36 68 100 132 164 196 228 10 42 74 74
106 138 170 202 234 16 48 80 112 144 176 208 240 22 54 86 118
150 182 214 246 28 60 92 124 156 188 220 252 34 66 98 130 162
194 226 255 255 255 255 255 255 255 255 255 255
255 255 255 255 255 255 255 210 178 178 146 146 114 114 82 82 82
82 82 82 82 82 82 82 82 82 82 114 114 146 146 178 178 210
210 242 24 24 56 88 88 120 152 184 216 216 248 30 62 94 94
126 158 190 222 254 36 68 100 100 132 164 196 228 10 42 74 106
138 170 202 234 16 16 48 80 112 144 176 208 240 22 54 86 118
150 182 214 246 28 255 255 255 255 255 255 255 255 255 255 255 255
255 255 255 255 255 255 255 255 255 255 255 255
255 255 255 255 255 255 255 242 210 178 178 178 146 146 114 114 114
114 114 114 114 114 114 114 114 114 114 146 146 178 178 178 210 242
242 24 24 56 88 88 120 152 184 184 216 248 30 62 62 94 126
158 190 222 222 254 36 68 100 132 164 196 228 10 10 42 74 106
138 170 202 234 16 48 80 112 144 176 208 240 22 54 54 86 118
150 182 214 246 28 255 255 255 255 255 255 255 255 255 255 255 255
255 255 255 255 255 255 255 255 255 255 255 255
255 255 255 255 255 255 255 242 242 210 210 178 178 178 146 146 146
146 146 146 146 146 146 146 146 146 146 178 178 178 210 210 242 242
24 56 56 88 88 120 152 184 184 216 248 30 30 62 94 126 158
158 190 222 254 36 68 100 100 132 164 196 228 10 42 74 106 138
170 170 202 234 16 48 80 112 144 176 208 240 22 54 86 118 150
182 214 246 28 60 255 255 255 255 255 255 255 255 255 255 255 255
255 255 255 255 255 255 255 255 255 255 255 255
255 255 255 255 255 255 255 24 24 242 242 210 210 210 178 178 178
178 178 178 178 178 178 178 178 178 178 210 210 210 242 242 24 24
56 56 88 120 120 152 184 184 216 248 248 30 62 94 126 126 158
190 222 254 254 36 68 100 132 164 196 228 228 10 42 74 106 138
170 202 234 16 48 80 80 112 144 176 208 240 22 54 86 118 150
182 214 246 28 60 255 255 255 255 255 255 255 255 255 255 255 255
255 255 255 255 255 255 255 255 255 255 255 255
255 255 255 255 255 255 255 56 56 24 24 242 242 242 210 210 210
210 210 210 210 210 210 210 210 210 210 242 242 242 24 24 56 56
88 88 120 120 152 184 184 216 248 248 30 62 94 94 126 158 190
222 222 254 36 68 100 132 132 164 196 228 10 42 74 106 106 138
170 202 234 16 48 80 112 144 176 208 240 240 22 54 86 118 150
182 214 246 28 60 255 255 255 255 255 255 255 255 255 255 255 255
255 255 255 255 255 255 255 255 255 255 255 255
255 255 255 255 255 255 255 88 56 56 56 24 24 24 242 242 242
242 242 242 242 242 242 242 242 242 242 24 24 24 56 56 56 88
88 120 152 152 184 184 216 248 248 30 62 62 94 126 158 190 190
222 255 255 255 255 255 255 255 255 255 255 255 255 255 255 255 255
255 255 255 255 255 255 255 255 255 255 255 255 255 255 255 255 255
255 255 255 255 255 255 255 255 255 255 255 255 255 255 255 255 255
255 255 255 255 255 255 255 255 255 255 255 255
255 255 255 255 255 255 255 120 88 88 88 56 56 56 24 24 24
24 24 24 24 24 24 24 24 24 24 56 56 56 88 88 88 120
120 152 152 184 216 216 248 248 30 62 62 94 126 158 158 190 222
254 255 255 255 255 255 255 255 255 255 255 255 255 255 255 255 255
255 255 255 255 255 255 255 255 255 255 255 255 255 255 255 255 255
255 255 255 255 255 255 255 255 255 255 255 255 255 255 255 255 255
255 255 255 255 255 255 255 255 255 255 255 255
255 255 255 255 255 255 255 152 120 120 88 88 88 56 56 56 56
56 56 56 56 56 56 56 56 56 56 56 88 88 88 120 120 152
152 184 184 216 216 248 30 30 62 62 94 126 158 158 190 222 254
254 255 255 255 255 255 255 255 255 255 255 255 255 255 255 255 255
255 255 255 255 255 255 255 255 255 255 255 255 255 255 255 255 255
255 255 255 255 255 255 255 255 255 255 255 255 255 255 255 255 255
255 255 255 255 255 255 255 255 255 255 255 255
255 255 255 255 255 255 255 184 152 152 120 120 120 88 88 88 88
88 88 88 88 88 88 88 88 88 88 88 120 120 120 152 152 184
184 216 216 248 248 30 30 62 94 94 126 158 158 190 222 222 254
36 255 255 255 255 255 255 255 255 255 255 255 255 255 255 255 255
255 255 255 255 255 255 255 255 255 255 255 255 255 255 255 255 255
255 255 255 255 255 255 255 255 255 255 255 255 255 255 255 255 255
255 255 255 255 255 255 255 255 255 255 255 255
255 255 255 255 255 255 255 255 255 255 255 255 255 255 255 255 255
255 255 255 255 255 255 255 255 255 255 255 255 255 255 255 255 255
255 255 255 255 255 255 255 255 255 255 255 255 255 255 255 255 255
255 255 255 255 255 255 255 255 255 255 255 255 255 255 255 255 255
255 255 255 255 255 255 255 255 255 255 255 255 255 255 255 255 255
255 255 255 255 255 255 255 255 255 255 255 255 255 255 255 255 255
255 255 255 255 255 255 255 255 255 255 255 255
255 255 255 255 255 255 255 255 255 255 255 255 255 255 255 255 255
255 255 255 255 255 255 255 255 255 255 255 255 255 255 255 255 255
255 255 255 255 255 255 255 255 255 255 255 255 255 255 255 255 255
255 255 255 255 255 255 255 255 255 255 255 255 255 255 255 255 255
255 255 255 255 255 255 255 255 255 255 255 255 255 255 255 255 255
255 255 255 255 255 255 255 255 255 255 255 255 255 255 255 255 255
255 255 255 255 255 255 255 255 255 255 255 255
