P2
114 114
255
255 255 255 255 255 255 255 255 255 255 255 255 255 255 255 255 255
255 255 255 255 255 255 255 255 255 255 255 255 255 255 255 255 255
255 255 255 255 255 255 255 255 255 255 255 255 255 255 255 255 255
255 255 255 255 255 255 255 255 255 255 255 255 255 255 255 255 255
255 255 255 255 255 255 255 255 255 255 255 255 255 255 255 255 255
255 255 255 255 255 255 255 255 255 255 255 255 255 255 255 255 255
255 255 255 255 255 255 255 255 255 255 255 255
255 255 255 255 255 255 255 255 255 255 255 255 255 255 255 255 255
255 255 255 255 255 255 255 255 255 255 255 255 255 255 255 255 255
255 255 255 255 255 255 255 255 255 255 255 255 255 255 255 255 255
255 255 255 255 255 255 255 255 255 255 255 255 255 255 255 255 255
255 255 255 255 255 255 255 255 255 255 255 255 255 255 255 255 255
255 255 255 255 255 255 255 255 255 255 255 255 255 255 255 255 255
255 255 255 255 255 255 255 255 255 255 255 255
255 255 255 255 255 255 255 255 255 255 255 255 255 255 255 255 255
255 255 255 255 255 255 255 255 255 255 255 255 255 255 255 255 255
255 255 255 255 255 255 255 255 255 255 255 255 255 255 255 255 255
255 255 255 255 255 255 255 255 255 255 224 6 38 70 102 134 166
198 230 12 44 76 108 140 172 204 255 255 255 255 255 255 255 255
255 255 255 255 255 255 255 255 255 255 255 255 255 255 255 255 255
255 255 255 255 255 255 255 255 255 255 255 255
255 255 255 255 255 255 255 255 255 255 255 255 255 255 255 255 255
255 255 255 255 255 255 255 255 255 255 255 255 255 255 255 255 255
255 255 255 255 255 255 255 255 255 255 255 255 255 255 255 255 255
255 255 255 255 255 255 255 255 255 255 192 224 6 38 70 102 134
166 198 230 12 44 76 108 140 172 255 255 255 255 255 255 255 255
255 255 255 255 255 255 255 255 255 255 255 255 255 255 255 255 255
255 255 255 255 255 255 255 255 255 255 255 255
255 255 255 255 255 255 255 255 255 255 255 255 255 255 255 255 255
255 255 255 255 255 255 255 255 255 255 255 255 255 255 255 255 255
255 255 255 255 255 255 255 255 255 255 255 255 255 255 255 255 255
255 255 255 255 255 255 255 255 255 255 160 192 224 6 38 70 102
134 166 198 230 12 44 76 108 140 255 255 255 255 255 255 255 255
255 255 255 255 255 255 255 255 255 255 255 255 255 255 255 255 255
255 255 255 255 255 255 255 255 255 255 255 255
255 255 255 255 255 255 255 255 255 255 255 255 255 255 255 255 255
255 255 255 255 255 255 255 255 255 255 255 255 255 255 255 255 255
255 255 255 255 255 255 255 255 255 255 255 255 255 255 255 255 255
255 255 255 255 255 255 255 255 255 255 128 160 192 224 6 38 70
102 134 166 198 230 12 44 76 108 255 255 255 255 255 255 255 255
255 255 255 255 255 255 255 255 255 255 255 255 255 255 255 255 255
255 255 255 255 255 255 255 255 255 255 255 255
255 255 255 255 255 255 255 255 255 255 255 255 255 255 255 255 255
255 255 255 255 255 255 255 255 255 255 255 255 255 255 255 255 255
255 255 255 255 255 255 255 255 255 255 255 255 255 255 255 255 255
255 255 255 255 255 255 255 255 255 255 96 128 160 192 224 6 38
70 102 134 166 198 230 12 44 76 255 255 255 255 255 255 255 255
255 255 255 255 255 255 255 255 255 255 255 255 255 255 255 255 255
255 255 255 255 255 255 255 255 255 255 255 255
255 255 255 255 255 255 255 255 255 255 255 255 255 255 255 255 255
255 255 255 255 255 255 255 255 255 255 255 255 255 255 255 255 255
255 255 255 255 255 255 255 255 255 255 255 255 255 255 255 255 255
255 255 255 255 255 255 255 255 255 255 64 96 128 160 192 224 6
38 70 102 134 166 198 230 12 44 255 255 255 255 255 255 255 255
255 255 255 255 255 255 255 255 255 255 255 255 255 255 255 255 255
255 255 255 255 255 255 255 255 255 255 255 255
255 255 255 255 255 255 255 255 255 255 255 255 255 255 255 255 255
255 255 255 255 255 255 255 255 255 255 255 255 255 255 255 255 255
255 255 255 255 255 255 255 255 255 255 255 255 255 255 255 255 255
255 255 255 255 255 255 255 255 255 255 32 64 96 128 160 192 224
6 38 70 102 134 166 198 230 12 255 255 255 255 255 255 255 255
255 255 255 255 255 255 255 255 255 255 255 255 255 255 255 255 255
255 255 255 255 255 255 255 255 255 255 255 255
255 255 255 255 255 255 255 255 255 255 255 255 255 255 255 255 255
255 255 255 255 255 255 255 255 255 255 255 255 255 255 255 255 255
255 255 255 255 255 255 255 255 255 255 255 255 255 255 255 255 255
255 255 255 255 255 255 255 255 255 255 250 32 64 96 128 160 192
224 6 38 70 102 134 166 198 230 255 255 255 255 255 255 255 255
255 255 255 255 255 255 255 255 255 255 255 255 255 255 255 255 255
255 255 255 255 255 255 255 255 255 255 255 255
255 255 255 255 255 255 255 255 255 255 255 255 255 255 255 255 255
255 255 255 255 255 255 255 255 255 255 255 255 255 255 255 255 255
255 255 255 255 255 255 255 255 255 255 255 255 255 255 255 255 255
255 255 255 255 255 255 255 255 255 255 218 250 32 64 96 128 160
192 224 6 38 70 102 134 166 198 255 255 255 255 255 255 255 255
255 255 255 255 255 255 255 255 255 255 255 255 255 255 255 255 255
255 255 255 255 255 255 255 255 255 255 255 255
255 255 255 255 255 255 255 255 255 255 255 255 255 255 255 255 255
255 255 255 255 255 255 255 255 255 255 255 255 255 255 255 255 255
255 255 255 255 255 255 255 255 255 255 255 255 255 255 255 255 255
255 255 255 255 255 255 255 255 255 255 186 218 250 32 64 96 128
160 192 224 6 38 70 102 134 166 255 255 255 255 255 255 255 255
255 255 255 255 255 255 255 255 255 255 255 255 255 255 255 255 255
255 255 255 255 255 255 255 255 255 255 255 255
255 255 255 255 255 255 255 255 255 255 255 255 255 255 255 255 255
255 255 255 255 255 255 255 255 255 255 255 255 255 255 255 255 255
255 255 255 255 255 255 255 255 255 255 255 255 255 255 255 255 255
255 255 255 255 255 255 255 255 255 255 154 186 218 250 32 64 96
128 160 192 224 6 38 70 102 134 255 255 255 255 255 255 255 255
255 255 255 255 255 255 255 255 255 255 255 255 255 255 255 255 255
255 255 255 255 255 255 255 255 255 255 255 255
255 255 255 255 255 255 255 255 255 255 255 255 255 255 255 255 255
255 255 255 255 255 255 255 255 255 255 255 255 255 255 255 255 255
255 255 255 255 255 255 255 255 255 255 255 255 255 255 255 255 255
255 255 255 255 255 255 255 255 255 255 122 154 186 218 250 32 64
96 128 160 192 224 6 38 70 102 255 255 255 255 255 255 255 255
255 255 255 255 255 255 255 255 255 255 255 255 255 255 255 255 255
255 255 255 255 255 255 255 255 255 255 255 255
255 255 255 255 255 255 255 255 255 255 255 255 255 255 255 255 255
255 255 255 255 255 255 255 255 255 255 255 255 255 255 255 255 255
255 255 255 255 255 255 255 255 255 255 255 255 255 255 255 255 255
255 255 255 255 255 255 255 255 255 255 90 122 154 186 218 250 32
64 96 128 160 192 224 6 38 70 255 255 255 255 255 255 255 255
255 255 255 255 255 255 255 255 255 255 255 255 255 255 255 255 255
255 255 255 255 255 255 255 255 255 255 255 255
255 255 255 255 255 255 255 255 255 255 255 255 255 255 255 255 255
255 255 255 255 255 255 255 255 255 255 255 255 255 255 255 255 255
255 255 255 255 255 255 255 255 255 255 255 255 255 255 255 255 255
255 255 255 255 255 255 255 255 255 255 58 90 122 154 186 218 250
32 64 96 128 160 192 224 6 38 255 255 255 255 255 255 255 255
255 255 255 255 255 255 255 255 255 255 255 255 255 255 255 255 255
255 255 255 255 255 255 255 255 255 255 255 255
255 255 255 255 255 255 255 255 255 255 255 255 255 255 255 255 255
255 255 255 255 255 255 255 255 255 255 255 255 255 255 255 255 255
255 255 255 255 255 255 255 255 255 255 255 255 255 255 255 255 255
255 255 255 255 255 255 255 255 255 255 26 58 90 122 154 186 218
250 32 64 96 128 160 192 224 6 255 255 255 255 255 255 255 255
255 255 255 255 255 255 255 255 255 255 255 255 255 255 255 255 255
255 255 255 255 255 255 255 255 255 255 255 255
255 255 255 255 255 255 255 255 255 255 255 255 255 255 255 255 255
255 255 255 255 255 255 255 255 255 255 255 255 255 255 255 255 255
255 255 255 255 255 255 255 255 255 255 255 255 255 255 255 255 255
255 255 255 255 255 255 255 255 255 255 244 26 58 90 122 154 186
218 250 32 64 96 128 160 192 224 255 255 255 255 255 255 255 255
255 255 255 255 255 255 255 255 255 255 255 255 255 255 255 255 255
255 255 255 255 255 255 255 255 255 255 255 255
255 255 255 255 255 255 255 255 255 255 255 255 255 255 255 255 255
255 255 255 255 255 255 255 255 255 255 255 255 255 255 255 255 255
255 255 255 255 255 255 255 255 255 255 255 255 255 255 255 255 255
255 255 255 255 255 255 255 255 255 255 212 244 26 58 90 122 154
186 218 250 32 64 96 128 160 192 255 255 255 255 255 255 255 255
255 255 255 255 255 255 255 255 255 255 255 255 255 255 255 255 255
255 255 255 255 255 255 255 255 255 255 255 255
255 255 255 255 255 255 255 255 255 255 255 255 255 255 255 255 255
255 255 255 255 255 255 255 255 255 255 255 255 255 255 255 255 255
255 255 255 255 255 255 255 255 255 255 255 255 255 255 255 255 255
255 255 255 255 255 255 255 255 255 255 180 212 244 26 58 90 122
154 186 218 250 32 64 96 128 160 255 255 255 255 255 255 255 255
255 255 255 255 255 255 255 255 255 255 255 255 255 255 255 255 255
255 255 255 255 255 255 255 255 255 255 255 255
255 255 255 255 255 255 255 255 255 255 255 255 255 255 255 255 255
255 255 255 255 255 255 255 255 255 255 255 255 255 255 255 255 255
255 255 255 255 255 255 255 255 255 255 255 255 255 255 255 255 255
255 255 255 255 255 255 255 255 255 255 148 180 212 244 26 58 90
122 154 186 218 250 32 64 96 128 255 255 255 255 255 255 255 255
255 255 255 255 255 255 255 255 255 255 255 255 255 255 255 255 255
255 255 255 255 255 255 255 255 255 255 255 255
255 255 255 255 255 255 255 255 255 255 255 255 255 255 255 255 255
255 255 255 255 255 255 255 255 255 255 255 255 255 255 255 255 255
255 255 255 255 255 255 255 255 255 255 255 255 255 255 255 255 255
255 255 255 255 255 255 255 255 255 255 116 148 180 212 244 26 58
90 122 154 186 218 250 32 64 96 255 255 255 255 255 255 255 255
255 255 255 255 255 255 255 255 255 255 255 255 255 255 255 255 255
255 255 255 255 255 255 255 255 255 255 255 255
255 255 255 255 255 255 255 255 255 255 255 255 255 255 255 255 255
255 255 255 255 255 255 255 255 255 255 255 255 255 255 255 255 255
255 255 255 255 255 255 255 255 255 255 255 255 255 255 255 255 255
255 255 255 255 255 255 255 255 255 255 84 116 148 180 212 244 26
58 90 122 154 186 218 250 32 64 255 255 255 255 255 255 255 255
255 255 255 255 255 255 255 255 255 255 255 255 255 255 255 255 255
255 255 255 255 255 255 255 255 255 255 255 255
255 255 255 255 255 255 255 255 255 255 255 255 255 255 255 255 255
255 255 255 255 255 255 255 255 255 255 255 255 255 255 255 255 255
255 255 255 255 255 255 255 255 255 255 255 255 255 255 255 255 255
255 255 255 255 255 255 255 255 255 255 52 84 116 148 180 212 244
26 58 90 122 154 186 218 250 32 255 255 255 255 255 255 255 255
255 255 255 255 255 255 255 255 255 255 255 255 255 255 255 255 255
255 255 255 255 255 255 255 255 255 255 255 255
255 255 255 255 255 255 255 255 255 255 255 255 255 255 255 255 255
255 255 255 255 255 255 255 255 255 255 255 255 255 255 255 255 255
255 255 255 255 255 255 255 255 255 255 255 255 255 255 255 255 255
255 255 255 255 255 255 255 255 255 255 20 52 84 116 148 180 212
244 26 58 90 122 154 186 218 250 255 255 255 255 255 255 255 255
255 255 255 255 255 255 255 255 255 255 255 255 255 255 255 255 255
255 255 255 255 255 255 255 255 255 255 255 255
255 255 255 255 255 255 255 255 255 255 255 255 255 255 255 255 255
255 255 255 255 255 255 255 255 255 255 255 255 255 255 255 255 255
255 255 255 255 255 255 255 255 255 255 255 255 255 255 255 255 255
255 255 255 255 255 255 255 255 255 255 238 20 52 84 116 148 180
212 244 26 58 90 122 154 186 218 255 255 255 255 255 255 255 255
255 255 255 255 255 255 255 255 255 255 255 255 255 255 255 255 255
255 255 255 255 255 255 255 255 255 255 255 255
255 255 255 255 255 255 255 255 255 255 255 255 255 255 255 255 255
255 255 255 255 255 255 255 255 255 255 255 255 255 255 255 255 255
255 255 255 255 255 255 255 255 255 255 255 255 255 255 255 255 255
255 255 255 255 255 255 255 255 255 255 206 238 20 52 84 116 148
180 212 244 26 58 90 122 154 186 255 255 255 255 255 255 255 255
255 255 255 255 255 255 255 255 255 255 255 255 255 255 255 255 255
255 255 255 255 255 255 255 255 255 255 255 255
255 255 255 255 255 255 255 255 255 255 255 255 255 255 255 255 255
255 255 255 255 255 255 255 255 255 255 255 255 255 255 255 255 255
255 255 255 255 255 255 255 255 255 255 255 255 255 255 255 255 255
255 255 255 255 255 255 255 255 255 255 174 206 238 20 52 84 116
148 180 212 244 26 58 90 122 154 255 255 255 255 255 255 255 255
255 255 255 255 255 255 255 255 255 255 255 255 255 255 255 255 255
255 255 255 255 255 255 255 255 255 255 255 255
255 255 255 255 255 255 255 255 255 255 255 255 255 255 255 255 255
255 255 255 255 255 255 255 255 255 255 255 255 255 255 255 255 255
255 255 255 255 255 255 255 255 255 255 255 255 255 255 255 255 255
255 255 255 255 255 255 255 255 255 255 142 174 206 238 20 52 84
116 148 180 212 244 26 58 90 122 255 255 255 255 255 255 255 255
255 255 255 255 255 255 255 255 255 255 255 255 255 255 255 255 255
255 255 255 255 255 255 255 255 255 255 255 255
255 255 255 255 255 255 255 255 255 255 255 255 255 255 255 255 255
255 255 255 255 255 255 255 255 255 255 255 255 255 255 255 255 255
255 255 255 255 255 255 255 255 255 255 255 255 255 255 255 255 255
255 255 255 255 255 255 255 255 255 255 110 142 174 206 238 20 52
84 116 148 180 212 244 26 58 90 255 255 255 255 255 255 255 255
255 255 255 255 255 255 255 255 255 255 255 255 255 255 255 255 255
255 255 255 255 255 255 255 255 255 255 255 255
255 255 255 255 255 255 255 255 255 255 255 255 255 255 255 255 255
255 255 255 255 255 255 255 255 255 255 255 255 255 255 255 255 255
255 255 255 255 255 255 255 255 255 255 255 255 255 255 255 255 255
255 255 255 255 255 255 255 255 255 255 78 110 142 174 206 238 20
52 84 116 148 180 212 244 26 58 255 255 255 255 255 255 255 255
255 255 255 255 255 255 255 255 255 255 255 255 255 255 255 255 255
255 255 255 255 255 255 255 255 255 255 255 255
255 255 255 255 255 255 255 255 255 255 255 255 255 255 255 255 255
255 255 255 255 255 255 255 255 255 255 255 255 255 255 255 255 255
255 255 255 255 60 92 124 156 188 220 252 34 66 98 130 162 194
226 8 40 72 104 136 168 200 232 14 46 78 110 142 174 206 238
20 52 84 116 148 180 212 244 26 58 90 122 154 186 218 250 32
64 96 128 160 192 224 6 38 255 255 255 255 255 255 255 255 255
255 255 255 255 255 255 255 255 255 255 255 255
255 255 255 255 255 255 255 255 255 255 255 255 255 255 255 255 255
255 255 255 255 255 255 255 255 255 255 255 255 255 255 255 255 255
255 255 255 255 28 60 92 124 156 188 220 252 34 66 98 130 162
194 226 8 40 72 104 136 168 200 232 14 46 78 110 142 174 206
238 20 52 84 116 148 180 212 244 26 58 90 122 154 186 218 250
32 64 96 128 160 192 224 6 255 255 255 255 255 255 255 255 255
255 255 255 255 255 255 255 255 255 255 255 255
255 255 255 255 255 255 255 255 255 255 255 255 255 255 255 255 255
255 255 255 255 255 255 255 255 255 255 255 255 255 255 255 255 255
255 255 255 255 246 28 60 92 124 156 188 220 252 34 66 98 130
162 194 226 8 40 72 104 136 168 200 232 14 46 78 110 142 174
206 238 20 52 84 116 148 180 212 244 26 58 90 122 154 186 218
250 32 64 96 128 160 192 224 255 255 255 255 255 255 255 255 255
255 255 255 255 255 255 255 255 255 255 255 255
255 255 255 255 255 255 255 255 255 255 255 255 255 255 255 255 255
255 255 255 255 255 255 255 255 255 255 255 255 255 255 255 255 255
255 255 255 255 214 246 28 60 92 124 156 188 220 252 34 66 98
130 162 194 226 8 40 72 104 136 168 200 232 14 46 78 110 142
174 206 238 20 52 84 116 148 180 212 244 26 58 90 122 154 186
218 250 32 64 96 128 160 192 255 255 255 255 255 255 255 255 255
255 255 255 255 255 255 255 255 255 255 255 255
255 255 255 255 255 255 255 255 255 255 255 255 255 255 255 255 255
255 255 255 255 255 255 255 255 255 255 255 255 255 255 255 255 255
255 255 255 255 182 214 246 28 60 92 124 156 188 220 252 34 66
98 130 162 194 226 8 40 72 104 136 168 200 232 14 46 78 110
142 174 206 238 20 52 84 116 148 180 212 244 26 58 90 122 154
186 218 250 32 64 96 128 160 255 255 255 255 255 255 255 255 255
255 255 255 255 255 255 255 255 255 255 255 255
255 255 255 255 255 255 255 255 255 255 255 255 255 255 255 255 255
255 255 255 255 255 255 255 255 255 255 255 255 255 255 255 255 255
255 255 255 255 150 182 214 246 28 60 92 124 156 188 220 252 34
66 98 130 162 194 226 8 40 72 104 136 168 200 232 14 46 78
110 142 174 206 238 20 52 84 116 148 180 212 244 26 58 90 122
154 186 218 250 32 64 96 128 255 255 255 255 255 255 255 255 255
255 255 255 255 255 255 255 255 255 255 255 255
255 255 255 255 255 255 255 255 255 255 255 255 255 255 255 255 255
255 255 255 255 255 255 255 255 255 255 255 255 255 255 255 255 255
255 255 255 255 118 150 182 214 246 28 60 92 124 156 188 220 252
34 66 98 130 162 194 226 8 40 72 104 136 168 200 232 14 46
78 110 142 174 206 238 20 52 84 116 148 180 212 244 26 58 90
122 154 186 218 250 32 64 96 255 255 255 255 255 255 255 255 255
255 255 255 255 255 255 255 255 255 255 255 255
255 255 255 255 255 255 255 255 255 255 255 255 255 255 255 255 255
255 255 255 255 255 255 255 255 255 255 255 255 255 255 255 255 255
255 255 255 255 86 118 150 182 214 246 28 60 92 124 156 188 220
252 34 66 98 130 162 194 226 8 40 72 104 136 168 200 232 14
46 78 110 142 174 206 238 20 52 84 116 148 180 212 244 26 58
90 122 154 186 218 250 32 64 255 255 255 255 255 255 255 255 255
255 255 255 255 255 255 255 255 255 255 255 255
255 255 255 255 255 255 255 255 255 255 255 255 255 255 255 255 255
255 255 255 255 255 255 255 255 255 255 255 255 255 255 255 255 255
255 255 255 255 54 86 118 150 182 214 246 28 60 92 124 156 188
220 252 34 66 98 130 162 194 226 8 40 72 104 136 168 200 232
14 46 78 110 142 174 206 238 20 52 84 116 148 180 212 244 26
58 90 122 154 186 218 250 32 255 255 255 255 255 255 255 255 255
255 255 255 255 255 255 255 255 255 255 255 255
255 255 255 255 255 255 255 255 255 255 255 255 255 255 255 255 255
255 255 255 255 255 255 255 255 255 255 255 255 255 255 255 255 255
255 255 255 255 22 54 86 118 150 182 214 246 28 60 92 124 156
188 220 252 34 66 98 130 162 194 226 8 40 72 104 136 168 200
232 14 46 78 110 142 174 206 238 20 52 84 116 148 180 212 244
26 58 90 122 154 186 218 250 255 255 255 255 255 255 255 255 255
255 255 255 255 255 255 255 255 255 255 255 255
255 255 255 255 255 255 255 255 255 255 255 255 255 255 255 255 255
255 255 255 255 255 255 255 255 255 255 255 255 255 255 255 255 255
255 255 255 255 240 22 54 86 118 150 182 214 246 28 60 92 124
156 188 220 252 34 66 98 130 162 194 226 8 40 72 104 136 168
200 232 14 46 78 110 142 174 206 238 20 52 84 116 148 180 212
244 26 58 90 122 154 186 218 255 255 255 255 255 255 255 255 255
255 255 255 255 255 255 255 255 255 255 255 255
255 255 255 255 255 255 255 255 255 255 255 255 255 255 255 255 255
255 255 255 255 255 255 255 255 255 255 255 255 255 255 255 255 255
255 255 255 255 208 240 22 54 86 118 150 182 214 246 28 60 92
124 156 188 220 252 34 66 98 130 162 194 226 8 40 72 104 136
168 200 232 14 46 78 110 142 174 206 238 20 52 84 116 148 180
212 244 26 58 90 122 154 186 255 255 255 255 255 255 255 255 255
255 255 255 255 255 255 255 255 255 255 255 255
255 255 255 255 255 255 255 255 255 255 255 255 255 255 255 255 255
255 255 255 255 255 255 255 255 255 255 255 255 255 255 255 255 255
255 255 255 255 176 208 240 22 54 86 118 150 182 214 246 28 60
92 124 156 188 220 252 34 66 98 130 162 194 226 8 40 72 104
136 168 200 232 14 46 78 110 142 174 206 238 20 52 84 116 148
180 212 244 26 58 90 122 154 255 255 255 255 255 255 255 255 255
255 255 255 255 255 255 255 255 255 255 255 255
255 255 255 255 255 255 255 255 255 255 255 255 255 255 255 255 255
255 255 255 255 255 255 255 255 255 255 255 255 255 255 255 255 255
255 255 255 255 144 176 208 240 22 54 86 118 150 182 214 246 28
60 92 124 156 188 220 252 34 66 98 130 162 194 226 8 40 72
104 136 168 200 232 14 46 78 110 142 174 206 238 20 52 84 116
148 180 212 244 26 58 90 122 154 186 218 250 32 64 96 128 160
192 224 255 255 255 255 255 255 255 255 255 255
255 255 255 255 255 255 255 255 255 255 255 255 255 255 255 255 255
255 255 255 255 255 255 255 255 255 255 255 255 255 255 255 255 255
255 255 255 255 112 144 176 208 240 22 54 86 118 150 182 214 246
28 60 92 124 156 188 220 252 34 66 98 130 162 194 226 8 40
72 104 136 168 200 232 14 46 78 110 142 174 206 238 20 52 84
116 148 180 212 244 26 58 90 122 154 186 218 250 32 64 96 128
160 192 255 255 255 255 255 255 255 255 255 255
255 255 255 255 255 255 255 255 255 255 255 255 255 255 255 255 255
255 255 255 255 255 255 255 255 255 255 255 255 255 255 255 255 255
255 255 255 255 80 112 144 176 208 240 22 54 86 118 150 182 214
246 28 60 92 124 156 188 220 252 34 66 98 130 162 194 226 8
40 72 104 136 168 200 232 14 46 78 110 142 174 206 238 20 52
84 116 148 180 212 244 26 58 90 122 154 186 218 250 32 64 96
128 160 255 255 255 255 255 255 255 255 255 255
255 255 255 255 255 255 255 138 106 74 42 10 228 196 164 132 100
68 36 254 222 254 36 68 100 132 164 196 228 10 42 74 106 138
170 202 234 16 48 80 112 144 176 208 240 22 54 86 118 150 182
214 246 28 60 92 124 156 188 220 252 34 66 98 130 162 194 226
8 40 72 104 136 168 200 232 14 46 78 110 142 174 206 238 20
52 84 116 148 180 212 244 26 58 90 122 154 186 218 250 32 64
96 128 255 255 255 255 255 255 255 255 255 255
255 255 255 255 255 255 255 106 74 42 10 228 196 164 132 100 68
36 254 222 190 222 254 36 68 100 132 164 196 228 10 42 74 106
138 170 202 234 16 48 80 112 144 176 208 240 22 54 86 118 150
182 255 255 255 255 255 255 255 255 255 255 255 255 255 255 255 255
255 255 255 255 255 255 255 255 255 255 255 255 255 206 238 20 52
84 116 148 180 212 244 26 58 90 122 154 186 218 250 32 64 96
128 160 255 255 255 255 255 255 255 255 255 255
255 255 255 255 255 255 255 74 42 10 228 196 164 132 100 68 36
254 222 190 158 190 222 254 36 68 100 132 164 196 228 10 42 74
106 138 170 202 234 16 48 80 112 144 176 208 240 22 54 86 118
150 255 255 255 255 255 255 255 255 255 255 255 255 255 255 255 255
255 255 255 255 255 255 255 255 255 255 255 255 255 238 20 52 84
116 148 180 212 244 26 58 90 122 154 186 218 250 32 64 96 128
160 192 255 255 255 255 255 255 255 255 255 255
255 255 255 255 255 255 255 42 10 228 196 164 132 100 68 36 254
222 190 158 126 158 190 222 254 36 68 100 132 164 196 228 10 42
74 106 138 170 202 234 16 48 80 112 144 176 208 240 22 54 86
118 255 255 255 255 255 255 255 255 255 255 255 255 255 255 255 255
255 255 255 255 255 255 255 255 255 255 255 255 255 20 52 84 116
148 180 212 244 26 58 90 122 154 186 218 250 32 64 96 128 160
192 224 255 255 255 255 255 255 255 255 255 255
255 255 255 255 255 255 255 10 228 196 164 132 100 68 36 254 222
190 158 126 94 126 158 190 222 254 36 68 100 132 164 196 228 10
42 74 106 138 170 202 234 16 48 80 112 144 176 208 240 22 54
86 255 255 255 255 255 255 255 255 255 255 255 255 255 255 255 255
255 255 255 255 255 255 255 255 255 255 255 255 255 52 84 116 148
180 212 244 26 58 90 122 154 186 218 250 32 64 96 128 160 192
224 6 255 255 255 255 255 255 255 255 255 255
255 255 255 255 255 255 255 228 196 164 132 100 68 36 254 222 190
158 126 94 62 94 126 158 190 222 254 36 68 100 132 164 196 228
10 42 74 106 138 170 202 234 16 48 80 112 144 176 208 240 22
54 255 255 255 255 255 255 255 255 255 255 255 255 255 255 255 255
255 255 255 255 255 255 255 255 255 255 255 255 255 84 116 148 180
212 244 26 58 90 122 154 186 218 250 32 64 96 128 160 192 224
6 38 255 255 255 255 255 255 255 255 255 255
255 255 255 255 255 255 255 196 164 132 100 68 36 254 222 190 158
126 94 62 30 62 94 126 158 190 222 254 36 68 100 132 164 196
228 10 42 74 106 138 170 202 234 16 48 80 112 144 176 208 240
22 255 255 255 255 255 255 255 255 255 255 255 255 255 255 255 255
255 255 255 255 255 255 255 255 255 255 255 255 255 116 148 180 212
244 26 58 90 122 154 186 218 250 32 64 96 128 160 192 224 6
38 70 255 255 255 255 255 255 255 255 255 255
255 255 255 255 255 255 255 164 132 100 68 36 254 222 190 158 126
94 62 30 248 30 62 94 126 158 190 222 254 36 68 100 132 164
196 228 10 42 74 106 138 170 202 234 16 48 80 112 144 176 208
240 255 255 255 255 255 255 255 255 255 255 255 255 255 255 255 255
255 255 255 255 255 255 255 255 255 255 255 255 255 148 180 212 244
26 58 90 122 154 186 218 250 32 64 96 128 160 192 224 6 38
70 102 255 255 255 255 255 255 255 255 255 255
255 255 255 255 255 255 255 132 100 68 36 254 222 190 158 126 94
62 30 248 216 248 30 62 94 126 158 190 222 254 36 68 100 132
164 196 228 10 42 74 106 138 170 202 234 16 48 80 112 144 176
208 255 255 255 255 255 255 255 255 255 255 255 255 255 255 255 255
255 255 255 255 255 255 255 255 255 255 255 255 255 180 212 244 26
58 90 122 154 186 218 250 32 64 96 128 160 192 224 6 38 70
102 134 255 255 255 255 255 255 255 255 255 255
255 255 255 255 255 255 255 100 68 36 254 222 190 158 126 94 62
30 248 216 184 216 248 30 62 94 126 158 190 222 254 36 68 100
132 164 196 228 10 42 74 106 138 170 202 234 16 48 80 112 144
176 255 255 255 255 255 255 255 255 255 255 255 255 255 124 156 188
220 252 34 66 255 255 255 255 255 255 255 255 255 212 244 26 58
90 122 154 186 218 250 32 64 96 128 160 192 224 6 38 70 102
134 166 255 255 255 255 255 255 255 255 255 255
255 255 255 255 255 255 255 68 36 254 222 190 158 126 94 62 30
248 216 184 152 184 216 248 30 62 94 126 158 190 222 254 36 68
100 132 164 196 228 10 42 74 106 138 170 202 234 16 48 80 112
144 255 255 255 255 255 255 255 255 255 255 255 255 60 92 124 156
188 220 252 34 66 98 130 162 255 255 255 255 255 244 26 58 90
122 154 186 218 250 32 64 96 128 160 192 224 6 38 70 102 134
166 198 255 255 255 255 255 255 255 255 255 255
255 255 255 255 255 255 255 36 254 222 190 158 126 94 62 30 248
216 184 152 120 152 184 216 248 30 62 94 126 158 190 222 254 36
68 100 132 164 196 228 10 42 74 106 138 170 202 234 16 48 80
112 255 255 255 255 255 255 255 255 255 255 255 246 28 60 92 124
156 188 220 252 34 66 98 130 162 255 255 255 255 26 58 90 122
154 186 218 250 32 64 96 128 160 192 224 6 38 70 102 134 166
198 230 255 255 255 255 255 255 255 255 255 255
255 255 255 255 255 255 255 254 222 190 158 126 94 62 30 248 216
184 152 120 88 120 152 184 216 248 30 62 94 126 158 190 222 254
36 68 100 132 164 196 228 10 42 74 106 138 170 202 234 16 48
80 255 255 255 255 255 255 255 255 255 255 182 214 246 28 60 92
124 156 188 220 252 34 66 98 130 255 255 255 255 58 90 122 154
186 218 250 32 64 96 128 160 192 224 6 38 70 102 134 166 198
230 12 255 255 255 255 255 255 255 255 255 255
255 255 255 255 255 255 255 222 190 158 126 94 62 30 248 216 184
152 120 88 56 88 120 152 184 216 248 30 62 94 126 158 190 222
254 36 68 100 132 164 196 228 10 42 74 106 138 170 202 234 16
48 255 255 255 255 255 255 255 255 255 118 150 182 214 246 28 60
92 124 156 188 220 252 34 66 98 255 255 255 255 26 58 90 122
154 186 218 250 32 64 96 128 160 192 224 6 38 70 102 134 166
198 230 255 255 255 255 255 255 255 255 255 255
255 255 255 255 255 255 255 190 158 126 94 62 30 248 216 184 152
120 88 56 24 56 88 120 152 184 216 248 30 62 94 126 158 190
222 254 36 68 100 132 164 196 228 10 42 74 106 138 170 202 234
16 255 255 255 255 255 255 255 255 54 86 118 150 182 214 246 28
60 92 124 156 188 220 252 34 66 255 255 255 255 244 26 58 90
122 154 186 218 250 32 64 96 128 160 192 224 6 38 70 102 134
166 198 255 255 255 255 255 255 255 255 255 255
255 255 255 255 255 255 255 158 126 94 62 30 248 216 184 152 120
88 56 24 242 24 56 88 120 152 184 216 248 30 62 94 126 158
190 222 254 36 68 100 132 164 196 228 10 42 74 106 138 170 202
234 255 255 255 255 255 255 255 240 22 54 86 118 150 182 214 246
28 60 92 124 156 188 220 252 34 255 255 255 255 212 244 26 58
90 122 154 186 218 250 32 64 96 128 160 192 224 6 38 70 102
134 166 255 255 255 255 255 255 255 255 255 255
255 255 255 255 255 255 255 126 94 62 30 248 216 184 152 120 88
56 24 242 210 242 24 56 88 120 152 184 216 248 30 62 94 126
158 190 222 254 36 68 100 132 164 196 228 10 42 74 106 138 170
202 255 255 255 255 255 255 255 208 240 22 54 86 118 150 182 214
246 28 60 92 124 156 188 220 252 255 255 255 255 180 212 244 26
58 90 122 154 186 218 250 32 64 96 128 160 192 224 6 38 70
102 134 255 255 255 255 255 255 255 255 255 255
255 255 255 255 255 255 255 94 62 30 248 216 184 152 120 88 56
24 242 210 178 210 242 24 56 88 120 152 184 216 248 30 62 94
126 158 190 222 254 36 68 100 132 164 196 228 10 42 74 106 138
170 255 255 255 255 255 255 255 176 208 240 22 54 86 118 150 182
214 246 28 60 92 124 156 188 220 255 255 255 255 148 180 212 244
26 58 90 122 154 186 218 250 32 64 96 128 160 192 224 6 38
70 102 255 255 255 255 255 255 255 255 255 255
255 255 255 255 255 255 255 62 30 248 216 184 152 120 88 56 24
242 210 178 146 178 210 242 24 56 88 120 152 184 216 248 30 62
94 126 158 190 222 254 36 68 100 132 164 196 228 10 42 74 106
138 255 255 255 255 255 255 255 144 176 208 240 22 54 86 118 150
182 214 246 28 60 92 124 156 255 255 255 255 255 116 148 180 212
244 26 58 90 122 154 186 218 250 32 64 96 128 160 192 224 6
38 70 255 255 255 255 255 255 255 255 255 255
255 255 255 255 255 255 255 30 248 216 184 152 120 88 56 24 242
210 178 146 114 146 178 210 242 24 56 88 120 152 184 216 248 30
62 94 126 158 190 222 254 36 68 100 132 164 196 228 10 42 74
106 255 255 255 255 255 255 255 112 144 176 208 240 22 54 86 118
150 182 214 246 28 60 92 124 255 255 255 255 255 84 116 148 180
212 244 26 58 90 122 154 186 218 250 32 64 96 128 160 192 224
6 38 255 255 255 255 255 255 255 255 255 255
255 255 255 255 255 255 255 248 216 184 152 120 88 56 24 242 210
178 146 114 82 114 146 178 210 242 24 56 88 120 152 184 216 248
30 62 94 126 158 190 222 254 36 68 100 132 164 196 228 10 42
74 255 255 255 255 255 255 255 80 112 144 176 208 240 22 54 86
118 150 182 214 246 28 60 92 124 255 255 255 255 52 84 116 148
180 212 244 26 58 90 122 154 186 218 250 32 64 96 128 160 192
224 6 255 255 255 255 255 255 255 255 255 255
255 255 255 255 255 255 255 216 184 152 120 88 56 24 242 210 178
146 114 82 50 82 114 146 178 210 242 24 56 88 120 152 184 216
248 30 62 94 126 158 190 222 254 36 68 100 132 164 196 228 10
42 255 255 255 255 255 255 255 48 80 112 144 176 208 240 22 54
86 118 150 182 214 246 28 60 92 255 255 255 255 20 52 84 116
148 180 212 244 26 58 90 122 154 186 218 250 32 64 96 128 160
192 224 255 255 255 255 255 255 255 255 255 255
255 255 255 255 255 255 255 184 152 120 88 56 24 242 210 178 146
114 82 50 18 50 82 114 146 178 210 242 24 56 88 120 152 184
216 248 30 62 94 126 158 190 222 254 36 68 100 132 164 196 228
10 255 255 255 255 255 255 255 16 48 80 112 144 176 208 240 22
54 86 118 150 182 214 246 28 60 255 255 255 255 238 20 52 84
116 148 180 212 244 26 58 90 122 154 186 218 250 32 64 96 128
160 192 255 255 255 255 255 255 255 255 255 255
255 255 255 255 255 255 255 152 120 88 56 24 242 210 178 146 114
82 50 18 236 18 50 82 114 146 178 210 242 24 56 88 120 152
184 216 248 30 62 94 126 158 190 222 254 36 68 100 132 164 196
228 255 255 255 255 255 255 255 234 16 48 80 112 144 176 208 240
22 54 86 118 150 182 214 246 28 255 255 255 255 206 238 20 52
84 116 148 180 212 244 26 58 90 122 154 186 218 250 32 64 96
128 160 255 255 255 255 255 255 255 255 255 255
255 255 255 255 255 255 255 120 88 56 24 242 210 178 146 114 82
50 18 236 204 236 18 50 82 114 146 178 210 242 24 56 88 120
152 184 216 248 30 62 94 126 158 190 222 254 36 68 100 132 164
196 255 255 255 255 255 255 255 202 234 16 48 80 112 144 176 208
240 22 54 86 118 150 182 214 246 255 255 255 255 174 206 238 20
52 84 116 148 180 212 244 26 58 90 122 154 186 218 250 32 64
96 128 255 255 255 255 255 255 255 255 255 255
255 255 255 255 255 255 255 88 56 24 242 210 178 146 114 82 50
18 236 204 172 204 236 18 50 82 114 146 178 210 242 24 56 88
120 152 184 216 248 30 62 94 126 158 190 222 254 36 68 100 132
164 255 255 255 255 255 255 255 170 202 234 16 48 80 112 144 176
208 240 22 54 86 118 150 182 214 255 255 255 255 142 174 206 238
20 52 84 116 148 180 212 244 26 58 90 122 154 186 218 250 32
64 96 255 255 255 255 255 255 255 255 255 255
255 255 255 255 255 255 255 56 24 242 210 178 146 114 82 50 18
236 204 172 140 172 204 236 18 50 82 114 146 178 210 242 24 56
88 120 152 184 216 248 30 62 94 126 158 190 222 254 36 68 100
132 255 255 255 255 255 255 255 138 170 202 234 16 48 80 112 144
176 208 240 22 54 86 118 150 182 255 255 255 255 110 142 174 206
238 20 52 84 116 148 180 212 244 26 58 90 122 154 186 218 250
32 64 255 255 255 255 255 255 255 255 255 255
255 255 255 255 255 255 255 24 242 210 178 146 114 82 50 18 236
204 172 140 108 140 172 204 236 18 50 82 114 146 178 210 242 24
56 88 120 152 184 216 248 30 62 94 126 158 190 222 254 36 68
100 132 164 196 228 10 42 74 106 138 170 202 234 16 48 80 112
144 176 208 240 22 54 86 118 150 255 255 255 255 78 110 142 174
206 238 20 52 84 116 148 180 212 244 26 58 90 122 154 186 218
250 32 255 255 255 255 255 255 255 255 255 255
255 255 255 255 255 255 255 242 210 178 146 114 82 50 18 236 204
172 140 108 76 108 140 172 204 236 18 50 82 114 146 178 210 242
24 56 88 120 152 184 216 248 30 62 94 126 158 190 222 254 36
68 100 132 164 196 228 10 42 74 106 138 170 202 234 16 48 80
112 144 176 208 240 22 54 86 118 255 255 255 255 46 78 110 142
174 206 238 20 52 84 116 148 180 212 244 26 58 90 122 154 186
218 250 255 255 255 255 255 255 255 255 255 255
255 255 255 255 255 255 255 210 178 146 114 82 50 18 236 204 172
140 108 76 44 76 108 140 172 204 236 18 50 82 114 146 178 210
242 24 56 88 120 152 184 216 248 30 62 94 126 158 190 222 254
36 68 100 132 164 196 228 10 42 74 106 138 170 202 234 16 48
80 112 144 176 208 240 22 54 86 255 255 255 255 14 46 78 110
142 174 206 238 20 52 84 116 148 180 212 244 26 58 90 122 154
186 218 255 255 255 255 255 255 255 255 255 255
255 255 255 255 255 255 255 178 146 114 82 50 18 236 204 172 140
108 76 44 12 44 76 108 140 172 204 236 18 50 82 114 146 178
210 242 24 56 88 120 152 184 216 248 30 62 94 126 158 190 222
254 36 68 100 132 164 196 228 10 42 74 106 138 170 202 234 16
48 80 112 144 176 208 240 22 54 255 255 255 255 232 14 46 78
110 142 174 206 238 20 52 84 116 148 180 212 244 26 58 90 122
154 186 255 255 255 255 255 255 255 255 255 255
255 255 255 255 255 255 255 146 114 82 50 18 236 204 172 140 108
76 44 12 230 12 44 76 108 140 172 204 236 18 50 82 114 146
178 210 242 24 56 88 120 152 184 216 248 30 62 94 126 158 190
222 254 36 68 100 132 164 196 228 10 42 74 106 138 170 202 234
16 48 80 112 144 176 208 240 22 255 255 255 255 200 232 14 46
78 110 142 174 206 238 20 52 84 116 148 180 212 244 26 58 90
122 154 255 255 255 255 255 255 255 255 255 255
255 255 255 255 255 255 255 114 82 50 18 236 204 172 140 108 76
44 12 230 198 230 12 44 76 108 140 172 204 236 18 50 82 114
146 178 210 242 24 56 88 120 152 184 216 248 30 62 94 126 158
190 222 254 36 68 100 132 164 196 228 10 42 74 106 138 170 202
234 16 48 80 112 144 176 208 240 22 255 255 255 168 200 232 14
46 78 110 142 174 206 238 20 52 84 116 148 180 212 244 26 58
90 122 255 255 255 255 255 255 255 255 255 255
255 255 255 255 255 255 255 82 50 18 236 204 172 140 108 76 44
12 230 198 166 198 230 12 44 76 108 140 172 204 236 18 50 82
114 146 178 210 242 24 56 88 120 152 184 216 248 30 62 94 126
158 190 222 254 36 68 100 132 164 196 228 10 42 74 106 138 170
202 234 16 48 80 112 144 176 208 240 255 255 255 136 168 200 232
14 46 78 110 142 174 206 238 20 52 84 116 148 180 212 244 26
58 90 255 255 255 255 255 255 255 255 255 255
255 255 255 255 255 255 255 50 18 236 204 172 140 108 76 44 12
230 198 166 134 166 198 230 12 44 76 108 140 172 204 236 18 50
82 114 146 178 210 242 24 56 88 120 152 184 216 248 30 62 94
126 158 190 222 254 36 68 100 132 164 196 228 10 42 74 106 138
170 202 234 16 48 80 112 144 176 208 255 255 255 104 136 168 200
232 14 46 78 110 142 174 206 238 20 52 84 116 148 180 212 244
26 58 255 255 255 255 255 255 255 255 255 255
255 255 255 255 255 255 255 18 236 204 172 140 108 76 44 12 230
198 166 134 102 134 166 198 230 12 44 76 108 140 172 204 236 18
50 82 114 146 178 210 242 24 56 88 120 152 184 216 248 30 62
94 126 158 190 222 254 36 68 100 132 164 196 228 10 42 74 106
138 170 202 234 16 48 80 112 144 176 255 255 255 72 104 136 168
200 232 14 46 78 110 142 174 206 238 20 52 84 116 148 180 212
244 26 255 255 255 255 255 255 255 255 255 255
255 255 255 255 255 255 255 236 204 172 140 108 76 44 12 230 198
166 134 102 70 102 134 166 198 230 12 44 76 108 140 172 204 236
18 50 82 114 146 178 210 242 24 56 88 120 152 184 216 248 30
62 255 255 255 255 255 255 255 255 255 196 228 10 42 74 106 138
170 202 234 16 48 80 112 144 176 208 255 255 255 40 72 104 136
168 200 232 14 46 78 110 142 174 206 238 20 52 84 116 148 180
212 244 255 255 255 255 255 255 255 255 255 255
255 255 255 255 255 255 255 204 172 140 108 76 44 12 230 198 166
134 102 70 38 70 102 134 166 198 230 12 44 76 108 140 172 204
236 18 50 82 114 146 178 210 242 24 56 88 120 152 184 216 248
30 255 255 255 255 255 255 255 255 255 228 10 42 74 106 138 170
202 234 16 48 80 112 144 176 208 240 255 255 255 8 40 72 104
136 168 200 232 14 46 78 110 142 174 206 238 20 52 84 116 148
180 212 255 255 255 255 255 255 255 255 255 255
255 255 255 255 255 255 255 172 140 108 76 44 12 230 198 166 134
102 70 38 255 38 70 102 134 166 198 230 12 44 76 108 140 172
204 236 18 50 82 114 146 178 210 242 24 56 88 120 152 184 216
248 255 255 255 255 255 255 255 255 255 10 42 74 106 138 170 202
234 16 48 80 112 144 176 208 240 255 255 255 255 226 8 40 72
104 136 168 200 232 14 46 78 110 142 174 206 238 20 52 84 116
148 180 255 255 255 255 255 255 255 255 255 255
255 255 255 255 255 255 255 204 172 140 108 76 44 12 230 198 166
134 102 70 38 70 102 134 166 198 230 12 44 76 108 140 172 204
236 18 50 82 114 146 178 210 242 24 56 88 120 152 184 216 248
30 255 255 255 255 255 255 255 255 74 42 74 106 138 170 202 234
16 48 80 112 144 176 208 240 22 255 255 255 255 194 226 8 40
72 104 136 168 200 232 14 46 78 110 142 174 206 238 20 52 84
116 148 255 255 255 255 255 255 255 255 255 255
255 255 255 255 255 255 255 236 204 172 140 108 76 44 12 230 198
166 134 102 70 102 134 166 198 230 12 44 76 108 140 172 204 236
18 50 82 114 146 178 210 242 24 56 88 120 152 184 216 248 30
62 255 255 255 255 255 255 255 255 106 74 106 138 170 202 234 16
48 80 112 144 176 208 240 22 54 255 255 255 255 162 194 226 8
40 72 104 136 168 200 232 14 46 78 110 142 174 206 238 20 52
84 116 255 255 255 255 255 255 255 255 255 255
255 255 255 255 255 255 255 18 236 204 172 140 108 76 44 12 230
198 166 134 102 134 166 198 230 12 44 76 108 140 172 204 236 18
50 82 114 146 178 210 242 24 56 88 120 152 184 216 248 30 62
94 255 255 255 255 255 255 255 255 138 106 138 170 202 234 16 48
80 112 144 176 208 240 22 54 86 255 255 255 255 130 162 194 226
8 40 72 104 136 168 200 232 14 46 78 110 142 174 206 238 20
52 84 255 255 255 255 255 255 255 255 255 255
255 255 255 255 255 255 255 50 18 236 204 172 140 108 76 44 12
230 198 166 134 166 198 230 12 44 76 108 140 172 204 236 18 50
82 114 146 178 210 242 24 56 88 120 152 184 216 248 30 62 94
126 255 255 255 255 255 255 255 255 170 138 170 202 234 16 48 80
112 144 176 208 240 22 54 86 255 255 255 255 255 98 130 162 194
226 8 40 72 104 136 168 200 232 14 46 78 110 142 174 206 238
20 52 255 255 255 255 255 255 255 255 255 255
255 255 255 255 255 255 255 82 50 18 236 204 172 140 108 76 44
12 230 198 166 198 230 12 44 76 108 140 172 204 236 18 50 82
114 146 178 210 242 24 56 88 120 152 184 216 248 30 62 94 126
158 255 255 255 255 255 255 255 255 202 170 202 234 16 48 80 112
144 176 208 240 22 54 86 255 255 255 255 255 255 66 98 130 162
194 226 8 40 72 104 136 168 200 232 14 46 78 110 142 174 206
238 20 255 255 255 255 255 255 255 255 255 255
255 255 255 255 255 255 255 114 82 50 18 236 204 172 140 108 76
44 12 230 198 230 12 44 76 108 140 172 204 236 18 50 82 114
146 178 210 242 24 56 88 120 152 184 216 248 30 62 94 126 158
190 255 255 255 255 255 255 255 255 255 202 234 16 48 80 112 144
176 208 240 22 54 86 255 255 255 255 255 255 255 34 66 98 130
162 194 226 8 40 72 104 136 168 200 232 14 46 78 110 142 174
206 238 255 255 255 255 255 255 255 255 255 255
255 255 255 255 255 255 255 146 114 82 50 18 236 204 172 140 108
76 44 12 230 12 44 76 108 140 172 204 236 18 50 82 114 146
178 210 242 24 56 88 120 152 184 216 248 30 62 94 126 158 190
222 255 255 255 255 255 255 255 255 255 234 16 48 80 112 144 176
208 240 22 54 86 255 255 255 255 255 255 255 255 252 34 66 98
130 162 194 226 8 40 72 104 136 168 200 232 14 46 78 110 142
174 206 255 255 255 255 255 255 255 255 255 255
255 255 255 255 255 255 255 178 146 114 82 50 18 236 204 172 140
108 76 44 12 44 76 108 140 172 204 236 18 50 82 114 146 178
210 242 24 56 88 120 152 184 216 248 30 62 94 126 158 190 222
254 255 255 255 255 255 255 255 255 255 255 255 255 255 144 176 208
240 22 54 86 118 255 255 255 255 255 255 255 255 220 252 34 66
98 130 162 194 226 8 40 72 104 136 168 200 232 14 46 78 110
142 174 255 255 255 255 255 255 255 255 255 255
255 255 255 255 255 255 255 210 178 146 114 82 50 18 236 204 172
140 108 76 44 76 108 140 172 204 236 18 50 82 114 146 178 210
242 24 56 88 120 152 184 216 248 30 62 94 126 158 190 222 254
36 255 255 255 255 255 255 255 255 255 255 255 255 255 255 255 240
22 54 86 255 255 255 255 255 255 255 255 255 255 188 220 252 34
66 98 130 162 194 226 8 40 72 104 136 168 200 232 14 46 78
110 142 255 255 255 255 255 255 255 255 255 255
255 255 255 255 255 255 255 242 210 178 146 114 82 50 18 236 204
172 140 108 76 108 140 172 204 236 18 50 82 114 146 178 210 242
24 56 88 120 152 184 216 248 30 62 94 126 158 190 222 254 36
68 255 255 255 255 255 255 255 255 255 255 255 255 255 255 255 255
255 255 255 255 255 255 255 255 255 255 255 255 255 156 188 220 252
34 66 98 130 162 194 226 8 40 72 104 136 168 200 232 14 46
78 110 255 255 255 255 255 255 255 255 255 255
255 255 255 255 255 255 255 24 242 210 178 146 114 82 50 18 236
204 172 140 108 140 172 204 236 18 50 82 114 146 178 210 242 24
56 88 120 152 184 216 248 30 62 94 126 158 190 222 254 36 68
100 255 255 255 255 255 255 255 255 255 255 255 255 255 255 255 255
255 255 255 255 255 255 255 255 255 255 255 255 255 124 156 188 220
252 34 66 98 130 162 194 226 8 40 72 104 136 168 200 232 14
46 78 255 255 255 255 255 255 255 255 255 255
255 255 255 255 255 255 255 56 24 242 210 178 146 114 82 50 18
236 204 172 140 172 204 236 18 50 82 114 146 178 210 242 24 56
88 120 152 184 216 248 30 62 94 126 158 190 222 254 36 68 100
132 164 196 228 10 42 74 106 138 170 202 234 16 48 80 112 144
176 208 240 22 54 86 118 150 182 214 246 28 60 92 124 156 188
220 252 34 66 98 130 162 194 226 8 40 72 104 136 168 200 232
14 46 255 255 255 255 255 255 255 255 255 255
255 255 255 255 255 255 255 88 56 24 242 210 178 146 114 82 50
18 236 204 172 204 236 18 50 82 114 146 178 210 242 24 56 88
120 152 184 216 248 30 62 94 126 158 190 222 254 36 68 100 132
164 196 228 10 42 74 106 138 170 202 234 16 48 80 112 144 176
208 240 22 54 86 118 150 182 214 246 28 60 92 124 156 188 220
252 34 66 98 130 162 194 226 8 40 72 104 136 168 200 232 14
46 78 255 255 255 255 255 255 255 255 255 255
255 255 255 255 255 255 255 120 88 56 24 242 210 178 146 114 82
50 18 236 204 236 18 50 82 114 146 178 210 242 24 56 88 120
152 184 216 248 30 62 94 126 158 190 222 254 36 68 100 132 164
196 228 10 42 74 106 138 170 202 234 16 48 80 112 144 176 208
240 22 54 86 118 150 182 214 246 28 60 92 124 156 188 220 252
34 66 98 130 162 194 226 8 40 72 104 136 168 200 232 14 46
78 110 255 255 255 255 255 255 255 255 255 255
255 255 255 255 255 255 255 152 120 88 56 24 242 210 178 146 114
82 50 18 236 18 50 82 114 146 178 210 242 24 56 88 120 152
184 216 248 30 62 94 126 158 190 222 254 36 68 100 132 164 196
228 10 42 74 106 138 170 202 234 16 48 80 112 144 176 208 240
22 54 86 118 150 182 214 246 28 60 92 124 156 188 220 252 34
66 98 130 162 194 226 8 40 72 104 136 168 200 232 14 46 78
110 142 255 255 255 255 255 255 255 255 255 255
255 255 255 255 255 255 255 184 152 120 88 56 24 242 210 178 146
114 82 50 18 50 82 114 146 178 210 242 24 56 88 120 152 184
216 248 30 62 94 126 158 190 222 254 36 68 100 132 164 196 228
10 42 74 106 138 170 202 234 16 48 80 112 144 176 208 240 22
54 86 118 150 182 214 246 28 60 92 124 156 188 220 252 34 66
98 130 162 194 226 8 40 72 104 136 168 200 232 14 46 78 110
142 174 255 255 255 255 255 255 255 255 255 255
255 255 255 255 255 255 255 216 184 152 120 88 56 24 242 210 178
146 114 82 50 82 114 146 178 210 242 24 56 88 120 152 184 216
248 30 62 94 126 158 190 222 254 36 68 100 132 164 196 228 10
42 74 106 138 170 202 234 16 48 80 112 144 176 208 240 22 54
86 118 150 182 214 246 28 60 92 124 156 188 220 252 34 66 98
130 162 194 226 8 40 72 104 136 168 200 232 14 46 78 110 142
174 206 255 255 255 255 255 255 255 255 255 255
255 255 255 255 255 255 255 248 216 184 152 120 88 56 24 242 210
178 146 114 82 114 146 178 210 242 24 56 88 120 152 184 216 248
30 62 94 126 158 190 222 254 36 68 100 132 164 196 228 10 42
74 106 138 170 202 234 16 48 80 112 144 176 208 240 22 54 86
118 150 182 214 246 28 60 92 124 156 188 220 252 34 66 98 130
162 194 226 8 40 255 255 255 255 255 255 255 255 255 255 255 255
255 255 255 255 255 255 255 255 255 255 255 255
255 255 255 255 255 255 255 30 248 216 184 152 120 88 56 24 242
210 178 146 114 146 178 210 242 24 56 88 120 152 184 216 248 30
62 94 126 158 190 222 254 36 68 100 132 164 196 228 10 42 74
106 138 170 202 234 16 48 80 112 144 176 208 240 22 54 86 118
150 182 214 246 28 60 92 124 156 188 220 252 34 66 98 130 162
194 226 8 40 72 255 255 255 255 255 255 255 255 255 255 255 255
255 255 255 255 255 255 255 255 255 255 255 255
255 255 255 255 255 255 255 62 30 248 216 184 152 120 88 56 24
242 210 178 146 178 210 242 24 56 88 120 152 184 216 248 30 62
94 126 158 190 222 254 36 68 100 132 164 196 228 10 42 74 106
138 170 202 234 16 48 80 112 144 176 208 240 22 54 86 118 150
182 214 246 28 60 92 124 156 188 220 252 34 66 98 130 162 194
226 8 40 72 104 255 255 255 255 255 255 255 255 255 255 255 255
255 255 255 255 255 255 255 255 255 255 255 255
255 255 255 255 255 255 255 94 62 30 248 216 184 152 120 88 56
24 242 210 178 210 242 24 56 88 120 152 184 216 248 30 62 94
126 158 190 222 254 36 68 100 132 164 196 228 10 42 74 106 138
170 202 234 16 48 80 112 144 176 208 240 22 54 86 118 150 182
214 246 28 60 92 124 156 188 220 252 34 66 98 130 162 194 226
8 40 72 104 136 255 255 255 255 255 255 255 255 255 255 255 255
255 255 255 255 255 255 255 255 255 255 255 255
255 255 255 255 255 255 255 126 94 62 30 248 216 184 152 120 88
56 24 242 210 242 24 56 88 120 152 184 216 248 30 62 94 126
158 190 222 254 36 68 100 132 164 196 228 10 42 74 106 138 170
202 234 16 48 80 112 144 176 208 240 22 54 86 118 150 182 214
246 28 60 92 124 156 188 220 252 34 66 98 130 162 194 226 8
40 72 104 136 168 255 255 255 255 255 255 255 255 255 255 255 255
255 255 255 255 255 255 255 255 255 255 255 255
255 255 255 255 255 255 255 158 126 94 62 30 248 216 184 152 120
88 56 24 242 24 56 88 120 152 184 216 248 30 62 94 126 158
190 222 254 36 68 100 132 164 196 228 10 42 74 106 138 170 202
234 255 255 255 255 255 255 255 255 255 255 255 255 255 255 255 255
255 255 255 255 255 255 255 255 255 255 255 255 255 255 255 255 255
255 255 255 255 255 255 255 255 255 255 255 255 255 255 255 255 255
255 255 255 255 255 255 255 255 255 255 255 255
255 255 255 255 255 255 255 190 158 126 94 62 30 248 216 184 152
120 88 56 24 56 88 120 152 184 216 248 30 62 94 126 158 190
222 254 36 68 100 132 164 196 228 10 42 74 106 138 170 202 234
16 255 255 255 255 255 255 255 255 255 255 255 255 255 255 255 255
255 255 255 255 255 255 255 255 255 255 255 255 255 255 255 255 255
255 255 255 255 255 255 255 255 255 255 255 255 255 255 255 255 255
255 255 255 255 255 255 255 255 255 255 255 255
255 255 255 255 255 255 255 222 190 158 126 94 62 30 248 216 184
152 120 88 56 88 120 152 184 216 248 30 62 94 126 158 190 222
254 36 68 100 132 164 196 228 10 42 74 106 138 170 202 234 16
48 255 255 255 255 255 255 255 255 255 255 255 255 255 255 255 255
255 255 255 255 255 255 255 255 255 255 255 255 255 255 255 255 255
255 255 255 255 255 255 255 255 255 255 255 255 255 255 255 255 255
255 255 255 255 255 255 255 255 255 255 255 255
255 255 255 255 255 255 255 254 222 190 158 126 94 62 30 248 216
184 152 120 88 120 152 184 216 248 30 62 94 126 158 190 222 254
36 68 100 132 164 196 228 10 42 74 106 138 170 202 234 16 48
80 255 255 255 255 255 255 255 255 255 255 255 255 255 255 255 255
255 255 255 255 255 255 255 255 255 255 255 255 255 255 255 255 255
255 255 255 255 255 255 255 255 255 255 255 255 255 255 255 255 255
255 255 255 255 255 255 255 255 255 255 255 255
255 255 255 255 255 255 255 255 255 255 255 255 255 255 255 255 255
255 255 255 255 255 255 255 255 255 255 255 255 255 255 255 255 255
255 255 255 255 255 255 255 255 255 255 255 255 255 255 255 255 255
255 255 255 255 255 255 255 255 255 255 255 255 255 255 255 255 255
255 255 255 255 255 255 255 255 255 255 255 255 255 255 255 255 255
255 255 255 255 255 255 255 255 255 255 255 255 255 255 255 255 255
255 255 255 255 255 255 255 255 255 255 255 255
255 255 255 255 255 255 255 255 255 255 255 255 255 255 255 255 255
255 255 255 255 255 255 255 255 255 255 255 255 255 255 255 255 255
255 255 255 255 255 255 255 255 255 255 255 255 255 255 255 255 255
255 255 255 255 255 255 255 255 255 255 255 255 255 255 255 255 255
255 255 255 255 255 255 255 255 255 255 255 255 255 255 255 255 255
255 255 255 255 255 255 255 255 255 255 255 255 255 255 255 255 255
255 255 255 255 255 255 255 255 255 255 255 255
