P2
64 64
255
255 255 255 255 255 255 255 255 255 255 255 255 255 255 255 255 255
255 255 255 255 255 255 255 255 255 255 255 255 255 255 255 255 255
255 255 255 255 255 255 255 255 255 255 255 255 255 255 255 255 255
255 255 255 255 255 255 255 255 255 255 255 255 255
255 255 255 255 255 255 255 255 255 255 255 255 255 255 255 255 255
255 255 255 255 255 255 255 255 255 255 255 255 255 255 255 255 255
255 255 255 255 255 255 255 255 255 255 255 255 255 255 255 255 255
255 255 255 255 255 255 255 255 255 255 255 255 255
255 255 255 255 255 255 255 255 255 255 255 255 255 255 255 255 255
255 255 255 255 255 255 255 255 255 255 255 255 255 255 255 255 255
255 255 255 255 255 255 255 255 255 255 255 255 255 255 255 255 255
255 255 255 255 255 255 255 255 255 255 255 255 255
255 255 255 255 255 255 255 255 255 255 255 255 255 255 255 255 255
255 255 255 255 255 255 255 255 255 255 255 255 255 255 255 255 255
255 255 255 255 255 255 255 255 255 255 255 255 255 255 255 255 255
255 255 255 255 255 255 255 255 255 255 255 255 255
255 255 255 255 255 255 255 255 255 255 255 255 255 255 255 255 255
255 255 255 255 255 255 255 255 255 255 255 255 255 255 255 255 255
255 255 255 255 255 255 255 255 255 255 255 255 255 255 255 255 255
255 255 255 255 255 255 255 255 255 255 255 255 255
255 255 255 255 255 255 255 255 255 255 255 255 255 255 255 255 255
255 255 255 255 255 255 255 255 255 255 255 255 255 255 255 255 255
255 255 255 255 255 255 255 255 255 255 255 255 255 255 255 255 255
255 255 255 255 255 255 255 255 255 255 255 255 255
255 255 255 255 255 255 255 255 255 255 255 255 255 255 255 255 255
255 255 255 255 255 255 255 255 255 255 255 255 255 255 255 255 255
255 255 255 255 255 255 255 255 255 255 255 255 255 255 255 255 255
255 255 255 255 255 255 255 255 255 255 255 255 255
255 255 255 255 255 255 255 255 255 255 255 255 255 255 255 255 255
255 255 255 255 255 255 255 255 255 255 255 255 255 255 255 255 255
255 255 255 255 255 255 255 255 255 255 255 255 255 255 255 255 255
255 255 255 255 255 255 255 255 255 255 255 255 255
255 255 255 255 255 255 255 210 210 210 210 210 210 210 210 210 210
210 210 210 210 210 210 210 210 210 210 242 24 56 88 120 152 184
216 248 30 255 255 255 255 255 255 255 255 255 255 22 22 22 22
22 22 22 22 22 22 22 255 255 255 255 255 255
255 255 255 255 255 255 255 178 178 178 178 178 178 178 178 178 178
178 178 178 178 178 178 178 178 178 210 242 24 56 88 120 152 184
216 248 30 255 255 255 255 255 255 255 255 255 255 240 240 240 240
240 240 240 240 240 240 240 255 255 255 255 255 255
255 255 255 255 255 255 255 146 146 146 146 146 146 146 146 146 146
146 146 146 146 146 146 146 146 178 210 242 24 56 88 120 152 184
216 248 30 255 255 255 255 255 255 255 255 255 255 208 208 208 208
208 208 208 208 208 208 208 255 255 255 255 255 255
255 255 255 255 255 255 255 114 114 114 114 114 114 114 114 114 114
114 114 114 114 114 114 114 146 178 210 242 24 56 88 120 152 184
216 248 30 255 255 255 255 255 255 255 255 255 255 176 176 176 176
176 176 176 176 176 176 176 255 255 255 255 255 255
255 255 255 255 255 255 255 82 82 82 82 82 82 82 82 82 82
82 82 82 82 82 82 114 146 178 210 242 24 56 88 120 152 184
216 248 30 255 255 255 255 255 255 255 255 255 255 144 144 144 144
144 144 144 144 144 144 144 255 255 255 255 255 255
255 255 255 255 255 255 255 50 50 50 50 50 50 50 50 50 50
50 50 50 50 50 82 114 146 178 210 242 24 56 88 120 152 184
216 248 30 255 255 255 255 255 255 255 255 255 255 112 112 112 112
112 112 112 112 112 112 112 255 255 255 255 255 255
255 255 255 255 255 255 255 18 18 18 18 18 18 18 18 18 18
18 18 18 18 50 82 114 146 178 210 242 24 56 88 120 152 184
216 248 30 255 255 255 255 255 255 255 255 255 255 80 80 80 80
80 80 80 80 80 80 80 255 255 255 255 255 255
255 255 255 255 255 255 255 236 236 236 236 236 236 236 236 236 236
236 236 236 18 50 82 114 146 178 210 242 24 56 88 120 152 184
216 248 30 255 255 255 255 255 255 255 255 255 255 48 48 48 48
48 48 48 48 48 48 48 255 255 255 255 255 255
255 255 255 255 255 255 255 204 204 204 204 204 204 204 204 204 204
204 204 236 18 50 82 114 146 178 210 242 24 56 88 120 152 184
216 248 30 255 255 255 255 255 255 255 255 255 255 16 16 16 16
16 16 16 16 16 16 16 255 255 255 255 255 255
255 255 255 255 255 255 255 172 172 172 172 172 172 172 172 172 172
172 204 236 18 50 82 114 146 178 210 242 24 56 88 120 152 184
216 248 30 255 255 255 255 255 255 255 255 255 255 234 234 234 234
234 234 234 234 234 234 234 255 255 255 255 255 255
255 255 255 255 255 255 255 140 140 140 140 140 140 140 140 140 140
172 204 236 18 50 82 114 146 178 210 242 24 56 88 120 152 184
216 248 30 255 255 255 255 255 255 255 255 255 255 202 202 202 202
202 202 202 202 202 202 202 255 255 255 255 255 255
255 255 255 255 255 255 255 108 108 108 108 108 108 108 108 108 255
255 255 255 255 255 255 255 255 178 210 242 24 56 88 120 152 184
216 248 30 255 255 255 255 255 255 255 255 255 255 170 170 170 170
170 170 170 170 170 170 202 255 255 255 255 255 255
255 255 255 255 255 255 255 76 76 76 76 76 76 76 76 76 255
255 255 255 255 255 255 255 255 210 210 242 24 56 88 120 152 184
216 248 30 255 255 255 255 255 255 255 255 255 255 138 138 138 138
138 138 138 138 138 170 202 255 255 255 255 255 255
255 255 255 255 255 255 255 44 44 44 44 44 44 44 44 44 255
255 255 255 255 255 255 255 255 242 242 242 24 56 88 120 152 184
216 248 30 255 255 255 255 255 255 255 255 255 255 106 106 106 106
106 106 106 106 138 170 202 255 255 255 255 255 255
255 255 255 255 255 255 255 12 12 12 12 12 12 12 12 12 255
255 255 255 255 255 255 255 255 24 24 24 24 56 88 120 152 184
216 248 30 255 255 255 255 255 255 255 255 255 255 74 74 74 74
74 74 74 106 138 170 202 255 255 255 255 255 255
255 255 255 255 255 255 255 230 230 230 230 230 230 230 230 230 255
255 255 255 255 255 255 255 255 56 56 56 56 56 88 120 152 184
216 248 30 255 255 255 255 255 255 255 255 255 255 42 42 42 42
42 42 74 106 138 170 202 255 255 255 255 255 255
255 255 255 255 255 255 255 198 198 198 198 198 198 198 198 198 255
255 255 255 255 255 255 255 255 88 88 88 88 88 88 120 152 184
216 248 30 255 255 255 255 255 255 255 255 255 255 10 10 10 10
10 42 74 106 138 170 202 255 255 255 255 255 255
255 255 255 255 255 255 255 166 166 166 166 166 166 166 166 166 255
255 255 255 255 255 255 255 255 120 120 120 120 120 120 120 152 184
216 248 30 255 255 255 255 255 255 255 255 255 255 228 228 228 228
10 42 74 106 138 170 202 255 255 255 255 255 255
255 255 255 255 255 255 255 134 134 134 134 134 134 134 134 166 255
255 255 255 255 255 255 255 255 152 152 152 152 152 152 152 152 184
216 248 30 255 255 255 255 255 255 255 255 255 255 196 196 196 228
10 42 74 106 138 170 202 255 255 255 255 255 255
255 255 255 255 255 255 255 102 102 102 102 102 102 102 134 166 255
255 255 255 255 255 255 255 255 184 184 184 184 184 184 184 184 184
216 248 30 255 255 255 255 255 255 255 255 255 255 164 164 196 228
10 42 74 106 138 170 202 255 255 255 255 255 255
255 255 255 255 255 255 255 102 70 70 70 70 70 102 134 166 255
255 255 255 255 255 255 255 255 216 216 216 216 216 216 216 216 216
216 248 30 255 255 255 255 255 255 255 255 255 255 132 164 196 228
10 42 74 106 138 170 202 255 255 255 255 255 255
255 255 255 255 255 255 255 102 70 38 38 38 70 102 134 166 255
255 255 255 255 255 255 255 255 248 248 248 248 248 248 248 248 248
248 248 30 62 94 126 158 190 222 254 36 68 100 132 164 196 228
10 42 74 106 138 170 202 255 255 255 255 255 255
255 255 255 255 255 255 255 102 70 38 255 38 70 102 134 166 255
255 255 255 255 255 255 255 255 30 30 30 30 30 30 30 30 30
30 30 30 62 94 126 158 190 222 254 36 68 100 132 164 196 228
10 42 74 106 138 170 202 255 255 255 255 255 255
255 255 255 255 255 255 255 102 70 38 38 38 70 102 134 166 255
255 255 255 255 255 255 255 255 62 62 62 62 62 62 62 62 62
62 62 62 62 94 126 158 190 222 254 36 68 100 132 164 196 228
10 42 74 106 138 170 202 255 255 255 255 255 255
255 255 255 255 255 255 255 102 70 70 70 70 70 102 134 166 255
255 255 255 255 255 255 255 255 94 94 94 94 94 94 94 94 94
94 94 94 94 94 126 158 190 222 254 36 68 100 132 164 196 228
10 42 74 106 138 170 202 255 255 255 255 255 255
255 255 255 255 255 255 255 102 102 102 102 102 102 102 134 166 255
255 255 255 255 255 255 255 255 126 126 126 126 126 126 126 126 126
126 126 126 126 126 126 158 190 222 254 36 68 100 132 164 196 228
10 42 74 106 138 170 202 255 255 255 255 255 255
255 255 255 255 255 255 255 134 134 134 134 134 134 134 134 166 255
255 255 255 255 255 255 255 255 158 158 158 158 158 158 158 158 158
158 158 158 158 158 158 158 190 222 254 36 68 100 132 164 196 228
10 42 74 106 138 170 202 255 255 255 255 255 255
255 255 255 255 255 255 255 166 166 166 166 166 166 166 166 166 255
255 255 255 255 255 255 255 255 126 126 126 126 126 126 126 126 126
126 126 158 190 255 255 255 255 255 254 36 68 100 132 164 196 228
10 42 74 106 138 170 202 255 255 255 255 255 255
255 255 255 255 255 255 255 198 198 198 198 198 198 198 198 198 255
255 255 255 255 255 255 255 255 94 94 94 94 94 94 94 94 94
94 126 158 190 255 255 255 255 255 36 36 68 100 132 164 196 228
10 42 74 106 138 170 202 255 255 255 255 255 255
255 255 255 255 255 255 255 230 230 230 230 230 230 230 230 230 255
255 255 255 255 255 255 255 255 62 62 62 62 62 62 62 62 62
94 126 158 190 255 255 255 255 255 68 68 68 100 132 164 196 228
10 42 74 106 138 170 202 255 255 255 255 255 255
255 255 255 255 255 255 255 12 12 12 12 12 12 12 12 12 255
255 255 255 255 255 255 255 255 30 30 30 30 30 30 30 30 62
94 126 158 190 255 255 255 255 255 100 100 100 100 132 164 196 228
10 42 74 106 138 170 202 255 255 255 255 255 255
255 255 255 255 255 255 255 44 44 44 44 44 44 44 44 44 255
255 255 255 255 255 255 255 255 248 248 248 248 248 248 248 30 62
94 126 158 190 255 255 255 255 255 132 132 132 132 132 164 196 228
10 42 74 106 138 170 202 255 255 255 255 255 255
255 255 255 255 255 255 255 76 76 76 76 76 76 76 76 76 255
255 255 255 255 255 255 255 255 216 216 216 216 216 216 248 30 62
94 126 158 190 255 255 255 255 255 164 164 164 164 164 164 196 228
10 42 74 106 138 170 202 255 255 255 255 255 255
255 255 255 255 255 255 255 108 108 108 108 108 108 108 108 108 255
255 255 255 255 255 255 255 255 184 184 184 184 184 216 248 30 62
94 126 158 190 255 255 255 255 255 196 196 196 196 196 196 196 228
10 42 74 106 138 170 202 255 255 255 255 255 255
255 255 255 255 255 255 255 140 140 140 140 140 140 140 140 140 255
255 255 255 255 255 255 255 255 152 152 152 152 184 216 248 30 62
94 126 158 190 255 255 255 255 255 228 228 228 228 228 228 228 228
10 42 74 106 138 170 202 255 255 255 255 255 255
255 255 255 255 255 255 255 172 172 172 172 172 172 172 172 172 255
255 255 255 255 255 255 255 255 120 120 120 152 184 216 248 30 62
94 126 158 190 255 255 255 255 255 10 10 10 10 10 10 10 10
10 42 74 106 138 170 202 255 255 255 255 255 255
255 255 255 255 255 255 255 204 204 204 204 204 204 204 204 204 255
255 255 255 255 255 255 255 255 88 88 120 152 184 216 248 30 62
94 126 158 190 255 255 255 255 255 42 42 42 42 42 42 42 42
42 42 74 106 138 170 202 255 255 255 255 255 255
255 255 255 255 255 255 255 236 236 236 236 236 236 236 236 236 255
255 255 255 255 255 255 255 255 56 88 120 152 184 216 248 30 62
94 126 158 190 255 255 255 255 255 74 74 74 74 74 74 74 74
74 74 74 106 138 170 202 255 255 255 255 255 255
255 255 255 255 255 255 255 18 18 18 18 18 18 18 18 18 18
50 82 114 146 178 210 242 24 56 88 120 152 184 216 248 30 62
94 126 158 190 255 255 255 255 255 106 106 106 106 106 106 106 106
106 106 106 106 138 170 202 255 255 255 255 255 255
255 255 255 255 255 255 255 50 50 50 50 50 50 50 50 50 50
50 82 114 146 178 210 242 24 56 88 120 152 184 216 248 30 62
94 126 158 190 255 255 255 255 255 138 138 138 138 138 138 138 138
138 138 138 138 138 170 202 255 255 255 255 255 255
255 255 255 255 255 255 255 82 82 82 82 82 82 82 82 82 82
82 82 114 146 178 210 242 24 56 88 120 152 184 216 248 30 62
94 126 158 190 255 255 255 255 255 170 170 170 170 170 170 170 170
170 170 170 170 170 170 202 255 255 255 255 255 255
255 255 255 255 255 255 255 114 114 114 114 114 114 114 114 114 114
114 114 114 146 178 210 242 24 56 88 120 152 184 216 248 30 62
94 126 158 190 255 255 255 255 255 202 202 202 202 202 202 202 202
202 202 202 202 202 202 202 255 255 255 255 255 255
255 255 255 255 255 255 255 146 146 146 146 146 146 146 146 146 146
146 146 146 146 178 210 242 24 56 88 120 152 184 216 248 30 62
94 126 158 190 255 255 255 255 255 234 234 234 234 234 234 234 234
234 234 234 234 234 234 234 255 255 255 255 255 255
255 255 255 255 255 255 255 178 178 178 178 178 178 178 178 178 178
178 178 178 178 178 210 242 24 56 88 120 152 184 216 248 30 62
94 126 158 190 255 255 255 255 255 16 16 16 16 16 16 16 16
16 16 16 16 16 16 16 255 255 255 255 255 255
255 255 255 255 255 255 255 210 210 210 210 210 210 210 210 210 210
210 210 210 210 210 210 242 24 56 88 120 152 184 216 248 30 62
94 126 158 190 255 255 255 255 255 48 48 48 48 48 48 48 48
48 48 48 48 48 48 48 255 255 255 255 255 255
255 255 255 255 255 255 255 242 242 242 242 242 242 242 242 242 242
242 242 242 242 242 242 242 24 56 88 120 152 184 216 248 30 62
94 126 158 190 255 255 255 255 255 80 80 80 80 80 80 80 80
80 80 80 80 80 80 80 255 255 255 255 255 255
255 255 255 255 255 255 255 24 24 24 24 24 24 24 24 24 24
24 24 24 24 24 24 24 24 56 88 120 152 184 216 248 30 62
94 126 158 190 255 255 255 255 255 112 112 112 112 112 112 112 112
112 112 112 112 112 112 112 255 255 255 255 255 255
255 255 255 255 255 255 255 56 56 56 56 56 56 56 56 56 56
56 56 56 56 56 56 56 56 56 88 120 152 184 216 248 30 62
94 126 158 190 255 255 255 255 255 144 144 144 144 144 144 144 144
144 144 144 144 144 144 144 255 255 255 255 255 255
255 255 255 255 255 255 255 88 88 88 88 88 88 88 88 88 88
88 88 88 88 88 88 88 88 88 88 120 152 184 216 248 30 62
94 126 158 190 255 255 255 255 255 176 176 176 176 176 176 176 176
176 176 176 176 176 176 176 255 255 255 255 255 255
255 255 255 255 255 255 255 255 255 255 255 255 255 255 255 255 255
255 255 255 255 255 255 255 255 255 255 255 255 255 255 255 255 255
255 255 255 255 255 255 255 255 255 255 255 255 255 255 255 255 255
255 255 255 255 255 255 255 255 255 255 255 255 255
255 255 255 255 255 255 255 255 255 255 255 255 255 255 255 255 255
255 255 255 255 255 255 255 255 255 255 255 255 255 255 255 255 255
255 255 255 255 255 255 255 255 255 255 255 255 255 255 255 255 255
255 255 255 255 255 255 255 255 255 255 255 255 255
255 255 255 255 255 255 255 255 255 255 255 255 255 255 255 255 255
255 255 255 255 255 255 255 255 255 255 255 255 255 255 255 255 255
255 255 255 255 255 255 255 255 255 255 255 255 255 255 255 255 255
255 255 255 255 255 255 255 255 255 255 255 255 255
255 255 255 255 255 255 255 255 255 255 255 255 255 255 255 255 255
255 255 255 255 255 255 255 255 255 255 255 255 255 255 255 255 255
255 255 255 255 255 255 255 255 255 255 255 255 255 255 255 255 255
255 255 255 255 255 255 255 255 255 255 255 255 255
255 255 255 255 255 255 255 255 255 255 255 255 255 255 255 255 255
255 255 255 255 255 255 255 255 255 255 255 255 255 255 255 255 255
255 255 255 255 255 255 255 255 255 255 255 255 255 255 255 255 255
255 255 255 255 255 255 255 255 255 255 255 255 255
255 255 255 255 255 255 255 255 255 255 255 255 255 255 255 255 255
255 255 255 255 255 255 255 255 255 255 255 255 255 255 255 255 255
255 255 255 255 255 255 255 255 255 255 255 255 255 255 255 255 255
255 255 255 255 255 255 255 255 255 255 255 255 255
255 255 255 255 255 255 255 255 255 255 255 255 255 255 255 255 255
255 255 255 255 255 255 255 255 255 255 255 255 255 255 255 255 255
255 255 255 255 255 255 255 255 255 255 255 255 255 255 255 255 255
255 255 255 255 255 255 255 255 255 255 255 255 255
